<svg width="223" height="75" viewBox="0 0 223 75" fill="none" xmlns="http://www.w3.org/2000/svg">
<g clip-path="url(#clip0_2176_3747)">
<path d="M205.242 0.00024375H17.7684C17.085 0.00024375 16.4098 0.00024375 15.7283 0.00399375C15.1577 0.00774375 14.5918 0.0186375 14.0158 0.0278062C12.7644 0.0426221 11.516 0.153387 10.2814 0.359138C9.04851 0.569367 7.85425 0.965711 6.73901 1.53476C5.62513 2.10863 4.60734 2.85431 3.72257 3.74475C2.83316 4.63269 2.09177 5.65902 1.5269 6.78429C0.960474 7.90732 0.567713 9.11075 0.362181 10.353C0.154695 11.5937 0.043045 12.8487 0.0282328 14.1068C0.010939 14.6816 0.00911276 15.2584 0 15.8334V59.1726C0.00911276 59.7548 0.010939 60.3188 0.0282328 60.9012C0.0430495 62.1592 0.1547 63.4141 0.362181 64.6547C0.567145 65.8977 0.95993 67.1019 1.5269 68.2253C2.09151 69.3469 2.83301 70.3691 3.72257 71.2521C4.60398 72.1465 5.62243 72.8927 6.73901 73.4622C7.85425 74.0328 9.04838 74.4315 10.2814 74.6449C11.5162 74.849 12.7645 74.9598 14.0158 74.9764C14.5918 74.9892 15.1577 74.9965 15.7283 74.9965C16.4098 75.0002 17.085 75.0002 17.7684 75.0002H205.242C205.911 75.0002 206.592 75.0002 207.262 74.9965C207.83 74.9965 208.412 74.9892 208.98 74.9764C210.229 74.9607 211.475 74.8499 212.707 74.6449C213.944 74.43 215.142 74.0314 216.263 73.4622C217.378 72.8924 218.396 72.1462 219.277 71.2521C220.164 70.3657 220.907 69.3442 221.479 68.2253C222.041 67.101 222.43 65.897 222.632 64.6547C222.84 63.4139 222.956 62.1593 222.978 60.9012C222.985 60.3188 222.985 59.7548 222.985 59.1726C223 58.4914 223 57.814 223 57.1217V17.8805C223 17.1938 223 16.5127 222.985 15.8334C222.985 15.2584 222.985 14.6816 222.978 14.1067C222.956 12.8485 222.84 11.5938 222.632 10.3529C222.43 9.1114 222.041 7.90806 221.479 6.78422C220.328 4.52874 218.504 2.69279 216.263 1.53459C215.142 0.966933 213.944 0.570695 212.707 0.358969C211.475 0.152311 210.229 0.0415083 208.98 0.0275437C208.412 0.0183937 207.83 0.00740625 207.262 0.00375C206.592 0 205.911 0.00024375 205.242 0.00024375Z" fill="#A6A6A6"/>
<path d="M15.7374 73.3594C15.1696 73.3594 14.6156 73.3521 14.0522 73.3393C12.8852 73.324 11.721 73.2218 10.569 73.0335C9.49482 72.8474 8.45424 72.5011 7.48158 72.0062C6.51782 71.5154 5.63881 70.8718 4.8782 70.1001C4.10658 69.3375 3.46417 68.453 2.97642 67.4816C2.48331 66.504 2.14204 65.4561 1.96452 64.3744C1.7728 63.2121 1.66908 62.0368 1.65424 60.8588C1.64242 60.4633 1.62695 59.1467 1.62695 59.1467V15.8331C1.62695 15.8331 1.64343 14.5367 1.65433 14.1559C1.66854 12.9797 1.77166 11.8062 1.9628 10.6457C2.14066 9.56109 2.48219 8.51015 2.97557 7.52931C3.46152 6.55864 4.10036 5.67349 4.86733 4.90815C5.63344 4.13554 6.51527 3.48863 7.48066 2.99102C8.4511 2.49768 9.48971 2.15387 10.5617 1.97113C11.7175 1.78094 12.8858 1.67812 14.0568 1.66352L15.7383 1.64062H207.253L208.954 1.66444C210.115 1.67831 211.272 1.78022 212.417 1.96929C213.5 2.15433 214.55 2.50053 215.531 2.99651C217.465 3.99935 219.039 5.58593 220.032 7.53388C220.517 8.50796 220.854 9.55033 221.029 10.6256C221.223 11.7956 221.331 12.9783 221.353 14.1641C221.358 14.6951 221.358 15.2655 221.358 15.8331C221.373 16.5363 221.373 17.2055 221.373 17.8802V57.1215C221.373 57.8027 221.373 58.4674 221.358 59.1375C221.358 59.7473 221.358 60.3058 221.351 60.8807C221.329 62.0454 221.223 63.2069 221.033 64.356C220.859 65.4455 220.519 66.5016 220.026 67.4873C219.535 68.448 218.896 69.3249 218.134 70.0854C217.372 70.8613 216.492 71.5086 215.526 72.0026C214.547 72.5014 213.499 72.8489 212.417 73.0335C211.266 73.2228 210.101 73.325 208.934 73.3393C208.388 73.3521 207.817 73.3594 207.262 73.3594L205.242 73.3631L15.7374 73.3594Z" fill="black"/>
<path d="M46.1576 38.0641C46.1776 36.4991 46.5908 34.9646 47.3586 33.6035C48.1264 32.2423 49.224 31.0987 50.5491 30.279C49.7073 29.0693 48.5967 28.0738 47.3056 27.3715C46.0145 26.6692 44.5784 26.2795 43.1114 26.2333C39.9821 25.9028 36.9483 28.1174 35.3536 28.1174C33.7281 28.1174 31.2729 26.2661 28.629 26.3209C26.9189 26.3765 25.2522 26.8768 23.7914 27.7732C22.3306 28.6695 21.1255 29.9313 20.2935 31.4356C16.6894 37.7139 19.3777 46.9409 22.8302 52.0158C24.5575 54.5008 26.5762 57.2767 29.2177 57.1782C31.8026 57.0704 32.768 55.5198 35.8881 55.5198C38.9793 55.5198 39.885 57.1782 42.5801 57.1156C45.3538 57.0703 47.1013 54.6196 48.7681 52.111C50.0091 50.3403 50.9642 48.3833 51.5977 46.3125C49.9863 45.6268 48.6111 44.479 47.6437 43.0122C46.6763 41.5454 46.1594 39.8245 46.1576 38.0641Z" fill="white"/>
<path d="M41.0677 22.8955C42.58 21.0689 43.3251 18.721 43.1447 16.3506C40.8342 16.5947 38.6999 17.7058 37.1672 19.4624C36.4178 20.3205 35.8438 21.3188 35.4781 22.4002C35.1124 23.4817 34.9621 24.625 35.0358 25.765C36.1915 25.7769 37.3348 25.5249 38.3796 25.0279C39.4244 24.5308 40.3435 23.8017 41.0677 22.8955Z" fill="white"/>
<path d="M78.8317 50.8869H70.0108L67.8924 57.1802H64.1562L72.5113 33.8965H76.3931L84.7481 57.1802H80.9482L78.8317 50.8869ZM70.9244 47.9828H77.9164L74.4695 37.7692H74.3731L70.9244 47.9828Z" fill="white"/>
<path d="M102.791 48.6935C102.791 53.9687 99.9852 57.358 95.7504 57.358C94.6776 57.4145 93.6107 57.1658 92.6719 56.6406C91.733 56.1153 90.9602 55.3347 90.4418 54.388H90.3617V62.7962H86.8984V40.2047H90.2507V43.0282H90.3144C90.8566 42.086 91.6425 41.3094 92.5885 40.781C93.5345 40.2525 94.6052 39.992 95.6867 40.0271C99.9687 40.0271 102.791 43.4328 102.791 48.6935ZM99.2318 48.6935C99.2318 45.2566 97.4665 42.997 94.7731 42.997C92.127 42.997 90.3471 45.3042 90.3471 48.6935C90.3471 52.1139 92.127 54.4045 94.7731 54.4045C97.4665 54.4045 99.2318 52.1615 99.2318 48.6935Z" fill="white"/>
<path d="M121.362 48.6934C121.362 53.9687 118.556 57.358 114.321 57.358C113.248 57.4144 112.181 57.1658 111.242 56.6406C110.303 56.1153 109.53 55.3346 109.012 54.388H108.932V62.7962H105.469V40.2047H108.821V43.0281H108.885C109.427 42.086 110.213 41.3094 111.159 40.781C112.105 40.2525 113.175 39.992 114.257 40.0271C118.539 40.0271 121.362 43.4328 121.362 48.6934ZM117.802 48.6934C117.802 45.2566 116.037 42.997 113.343 42.997C110.697 42.997 108.917 45.3042 108.917 48.6934C108.917 52.1139 110.697 54.4045 113.343 54.4045C116.037 54.4045 117.802 52.1615 117.802 48.6934Z" fill="white"/>
<path d="M133.635 50.6928C133.892 53.0018 136.121 54.5178 139.167 54.5178C142.087 54.5178 144.187 53.0017 144.187 50.9198C144.187 49.1126 142.92 48.0304 139.921 47.2888L136.922 46.5619C132.672 45.5292 130.7 43.5297 130.7 40.285C130.7 36.2677 134.179 33.5083 139.12 33.5083C144.01 33.5083 147.362 36.2677 147.475 40.285H143.979C143.77 37.9614 141.861 36.5588 139.071 36.5588C136.281 36.5588 134.372 37.9779 134.372 40.0433C134.372 41.6895 135.591 42.6581 138.574 43.3996L141.124 44.0295C145.872 45.1592 147.845 47.0782 147.845 50.484C147.845 54.84 144.396 57.5683 138.911 57.5683C133.779 57.5683 130.314 54.9041 130.09 50.6927L133.635 50.6928Z" fill="white"/>
<path d="M155.319 36.1875V40.2048H158.528V42.9642H155.319V52.3228C155.319 53.7766 155.962 54.4541 157.372 54.4541C157.753 54.4474 158.133 54.4205 158.512 54.3735V57.1164C157.877 57.2356 157.233 57.2896 156.588 57.2775C153.172 57.2775 151.84 55.9866 151.84 52.6944V42.9642H149.387V40.2048H151.84V36.1875H155.319Z" fill="white"/>
<path d="M160.387 48.6936C160.387 43.3524 163.513 39.9961 168.389 39.9961C173.281 39.9961 176.393 43.3523 176.393 48.6936C176.393 54.0494 173.297 57.3911 168.389 57.3911C163.482 57.3911 160.387 54.0494 160.387 48.6936ZM172.864 48.6936C172.864 45.0297 171.195 42.8672 168.389 42.8672C165.582 42.8672 163.915 45.0461 163.915 48.6936C163.915 52.3722 165.582 54.5182 168.389 54.5182C171.195 54.5182 172.864 52.3722 172.864 48.6936Z" fill="white"/>
<path d="M179.246 40.2045H182.549V43.0939H182.629C182.853 42.1915 183.378 41.394 184.117 40.8354C184.856 40.2769 185.764 39.9914 186.688 40.0269C187.087 40.0255 187.485 40.0691 187.874 40.1569V43.4162C187.37 43.2613 186.845 43.1901 186.318 43.2056C185.815 43.1851 185.313 43.2743 184.848 43.4672C184.382 43.6601 183.964 43.9521 183.621 44.3232C183.278 44.6942 183.019 45.1355 182.862 45.6168C182.704 46.098 182.652 46.6079 182.709 47.1112V57.1802H179.246L179.246 40.2045Z" fill="white"/>
<path d="M203.843 52.1941C203.377 55.2757 200.394 57.3906 196.578 57.3906C191.67 57.3906 188.623 54.0819 188.623 48.7737C188.623 43.449 191.686 39.9956 196.432 39.9956C201.1 39.9956 204.036 43.2219 204.036 48.369V49.5629H192.119V49.7734C192.064 50.3982 192.142 51.0276 192.347 51.6198C192.552 52.212 192.881 52.7534 193.31 53.2082C193.739 53.663 194.26 54.0207 194.837 54.2575C195.414 54.4943 196.035 54.6048 196.658 54.5818C197.476 54.6589 198.297 54.4682 199 54.038C199.702 53.6078 200.247 52.9611 200.554 52.1941L203.843 52.1941ZM192.135 47.1276H200.571C200.602 46.5658 200.517 46.0037 200.322 45.4764C200.127 44.9491 199.826 44.4681 199.437 44.0636C199.048 43.659 198.581 43.3396 198.064 43.1255C197.547 42.9113 196.991 42.807 196.432 42.8191C195.868 42.8157 195.309 42.9247 194.787 43.1399C194.265 43.355 193.791 43.672 193.392 44.0726C192.992 44.4731 192.675 44.9493 192.46 45.4737C192.244 45.998 192.134 46.5601 192.135 47.1276Z" fill="white"/>
<path d="M70.4911 16.3706C71.2171 16.3182 71.9457 16.4285 72.6242 16.6937C73.3028 16.9589 73.9144 17.3723 74.4149 17.9041C74.9154 18.4359 75.2924 19.0728 75.5186 19.769C75.7449 20.4651 75.8147 21.2031 75.7232 21.9297C75.7232 25.5039 73.8032 27.5584 70.4911 27.5584H66.4746V16.3706H70.4911ZM68.2017 25.9762H70.2981C70.817 26.0074 71.3362 25.9218 71.818 25.7257C72.2998 25.5295 72.732 25.2278 73.0833 24.8423C73.4346 24.4569 73.696 23.9975 73.8486 23.4976C74.0011 22.9977 74.041 22.4698 73.9652 21.9525C74.0355 21.4372 73.9916 20.9126 73.8367 20.4164C73.6818 19.9201 73.4197 19.4645 73.0692 19.0821C72.7188 18.6997 72.2886 18.4001 71.8095 18.2047C71.3304 18.0092 70.8143 17.9228 70.2981 17.9516H68.2017V25.9762Z" fill="white"/>
<path d="M77.675 23.3329C77.6222 22.778 77.6853 22.2182 77.8602 21.6893C78.0351 21.1604 78.3179 20.6742 78.6905 20.2617C79.0631 19.8492 79.5172 19.5197 80.0238 19.2942C80.5305 19.0686 81.0783 18.9521 81.6323 18.9521C82.1863 18.9521 82.7341 19.0686 83.2407 19.2942C83.7473 19.5197 84.2015 19.8492 84.5741 20.2617C84.9467 20.6742 85.2295 21.1604 85.4044 21.6893C85.5793 22.2182 85.6424 22.778 85.5896 23.3329C85.6434 23.8883 85.581 24.4489 85.4066 24.9786C85.2322 25.5083 84.9496 25.9955 84.5769 26.4088C84.2042 26.822 83.7497 27.1523 83.2425 27.3783C82.7354 27.6043 82.1869 27.7211 81.6323 27.7211C81.0776 27.7211 80.5291 27.6043 80.022 27.3783C79.5149 27.1523 79.0604 26.822 78.6877 26.4088C78.315 25.9955 78.0324 25.5083 77.858 24.9786C77.6835 24.4489 77.6212 23.8883 77.675 23.3329ZM83.8862 23.3329C83.8862 21.5027 83.0691 20.4325 81.635 20.4325C80.1955 20.4325 79.3857 21.5027 79.3857 23.3329C79.3857 25.1777 80.1956 26.2397 81.635 26.2397C83.0691 26.2397 83.8862 25.1703 83.8862 23.3329Z" fill="white"/>
<path d="M96.1102 27.5582H94.3922L92.6579 21.34H92.5269L90.7998 27.5582H89.0982L86.7852 19.1152H88.4649L89.9681 25.5577H90.0919L91.8171 19.1152H93.4059L95.1311 25.5577H95.2621L96.7581 19.1152H98.4141L96.1102 27.5582Z" fill="white"/>
<path d="M100.359 19.1151H101.954V20.4564H102.077C102.287 19.9747 102.641 19.5708 103.09 19.3012C103.539 19.0316 104.06 18.9095 104.581 18.9522C104.99 18.9213 105.4 18.9832 105.781 19.1334C106.162 19.2836 106.505 19.5181 106.784 19.8197C107.063 20.1213 107.271 20.4822 107.392 20.8756C107.514 21.269 107.546 21.6849 107.486 22.0924V27.558H105.83V22.5108C105.83 21.154 105.244 20.4793 104.019 20.4793C103.742 20.4663 103.465 20.5138 103.208 20.6184C102.951 20.7231 102.719 20.8825 102.529 21.0858C102.338 21.289 102.194 21.5312 102.105 21.7958C102.017 22.0604 101.986 22.3412 102.015 22.6189V27.5581H100.359L100.359 19.1151Z" fill="white"/>
<path d="M110.125 15.8193H111.781V27.5582H110.125V15.8193Z" fill="white"/>
<path d="M114.083 23.333C114.03 22.7781 114.094 22.2183 114.268 21.6894C114.443 21.1605 114.726 20.6742 115.099 20.2617C115.472 19.8492 115.926 19.5197 116.432 19.2942C116.939 19.0686 117.487 18.9521 118.041 18.9521C118.595 18.9521 119.143 19.0686 119.649 19.2942C120.156 19.5197 120.61 19.8492 120.983 20.2617C121.356 20.6742 121.638 21.1605 121.813 21.6894C121.988 22.2183 122.051 22.7781 121.999 23.333C122.052 23.8885 121.99 24.4491 121.815 24.9788C121.641 25.5085 121.358 25.9957 120.986 26.4089C120.613 26.8222 120.158 27.1524 119.651 27.3784C119.144 27.6044 118.596 27.7212 118.041 27.7212C117.486 27.7212 116.938 27.6044 116.431 27.3784C115.923 27.1524 115.469 26.8222 115.096 26.4089C114.723 25.9957 114.441 25.5085 114.266 24.9788C114.092 24.4491 114.029 23.8885 114.083 23.333ZM120.294 23.333C120.294 21.5029 119.477 20.4326 118.043 20.4326C116.604 20.4326 115.794 21.5029 115.794 23.333C115.794 25.1778 116.604 26.2398 118.043 26.2398C119.477 26.2398 120.294 25.1705 120.294 23.333Z" fill="white"/>
<path d="M123.742 25.1704C123.742 23.6506 124.867 22.7745 126.863 22.6499L129.136 22.5181V21.7894C129.136 20.8976 128.55 20.3941 127.418 20.3941C126.494 20.3941 125.853 20.7356 125.669 21.3325H124.066C124.235 19.8823 125.591 18.9521 127.495 18.9521C129.599 18.9521 130.785 20.0059 130.785 21.7894V27.5581H129.191V26.3716H129.06C128.794 26.7972 128.42 27.1442 127.978 27.3771C127.535 27.6099 127.038 27.7204 126.539 27.6972C126.187 27.7341 125.831 27.6963 125.494 27.5862C125.157 27.4761 124.847 27.2963 124.584 27.0582C124.32 26.8201 124.109 26.5292 123.964 26.204C123.819 25.8788 123.744 25.5267 123.742 25.1704ZM129.136 24.449V23.7431L127.087 23.8749C125.931 23.9527 125.407 24.3482 125.407 25.0926C125.407 25.8524 126.063 26.2946 126.963 26.2946C127.227 26.3215 127.494 26.2947 127.747 26.2158C128.001 26.1369 128.236 26.0075 128.439 25.8353C128.641 25.6631 128.808 25.4516 128.928 25.2134C129.047 24.9753 129.118 24.7153 129.136 24.449Z" fill="white"/>
<path d="M132.961 23.3331C132.961 20.6653 134.324 18.9752 136.444 18.9752C136.969 18.9509 137.489 19.0773 137.945 19.3396C138.4 19.6019 138.773 19.9892 139.017 20.4564H139.141V15.8193H140.797V27.5582H139.21V26.2243H139.079C138.815 26.6883 138.43 27.0709 137.966 27.3306C137.501 27.5902 136.975 27.7171 136.444 27.6974C134.309 27.6975 132.961 26.0074 132.961 23.3331ZM134.672 23.3331C134.672 25.1239 135.511 26.2015 136.914 26.2015C138.31 26.2015 139.172 25.1083 139.172 23.3404C139.172 21.5808 138.301 20.4721 136.914 20.4721C135.52 20.4721 134.672 21.557 134.672 23.3331Z" fill="white"/>
<path d="M147.65 23.3329C147.597 22.778 147.66 22.2182 147.835 21.6893C148.01 21.1604 148.292 20.6742 148.665 20.2617C149.038 19.8492 149.492 19.5197 149.998 19.2942C150.505 19.0686 151.053 18.9521 151.607 18.9521C152.161 18.9521 152.709 19.0686 153.215 19.2942C153.722 19.5197 154.176 19.8492 154.549 20.2617C154.921 20.6742 155.204 21.1604 155.379 21.6893C155.554 22.2182 155.617 22.778 155.564 23.3329C155.618 23.8883 155.556 24.4489 155.381 24.9786C155.207 25.5083 154.924 25.9955 154.551 26.4088C154.179 26.822 153.724 27.1523 153.217 27.3783C152.71 27.6043 152.162 27.7211 151.607 27.7211C151.052 27.7211 150.504 27.6043 149.997 27.3783C149.49 27.1523 149.035 26.822 148.662 26.4088C148.29 25.9955 148.007 25.5083 147.833 24.9786C147.658 24.4489 147.596 23.8883 147.65 23.3329ZM153.861 23.3329C153.861 21.5027 153.044 20.4325 151.61 20.4325C150.17 20.4325 149.36 21.5027 149.36 23.3329C149.36 25.1777 150.17 26.2397 151.61 26.2397C153.044 26.2397 153.861 25.1703 153.861 23.3329Z" fill="white"/>
<path d="M157.785 19.1151H159.379V20.4564H159.503C159.713 19.9747 160.067 19.5708 160.516 19.3012C160.965 19.0316 161.486 18.9095 162.007 18.9522C162.416 18.9213 162.826 18.9832 163.207 19.1334C163.588 19.2836 163.931 19.5181 164.21 19.8197C164.489 20.1213 164.697 20.4822 164.818 20.8756C164.94 21.269 164.972 21.6849 164.912 22.0924V27.558H163.256V22.5108C163.256 21.154 162.67 20.4793 161.445 20.4793C161.168 20.4663 160.891 20.5138 160.634 20.6184C160.376 20.7231 160.145 20.8825 159.954 21.0858C159.764 21.289 159.62 21.5312 159.531 21.7958C159.443 22.0604 159.412 22.3412 159.441 22.6189V27.5581H157.785V19.1151Z" fill="white"/>
<path d="M174.269 17.0132V19.1537H176.087V20.5572H174.269V24.8986C174.269 25.783 174.632 26.1703 175.456 26.1703C175.667 26.1696 175.878 26.1568 176.087 26.1318V27.5198C175.79 27.5733 175.489 27.6018 175.187 27.6049C173.345 27.6049 172.611 26.953 172.611 25.3252V20.5571H171.279V19.1536H172.611V17.0132H174.269Z" fill="white"/>
<path d="M178.35 15.8193H179.991V20.4721H180.122C180.342 19.9858 180.706 19.5797 181.164 19.3091C181.622 19.0384 182.152 18.9164 182.681 18.9596C183.087 18.9374 183.493 19.0056 183.87 19.1594C184.247 19.3133 184.586 19.5489 184.862 19.8495C185.138 20.1502 185.344 20.5084 185.467 20.8986C185.589 21.2889 185.625 21.7015 185.571 22.1072V27.5582H183.913V22.5182C183.913 21.1697 183.289 20.4867 182.119 20.4867C181.834 20.4632 181.548 20.5026 181.28 20.602C181.012 20.7015 180.769 20.8587 180.567 21.0626C180.366 21.2665 180.212 21.5121 180.115 21.7824C180.018 22.0526 179.98 22.341 180.006 22.6272V27.5582H178.35L178.35 15.8193Z" fill="white"/>
<path d="M195.228 25.2786C195.003 26.0502 194.515 26.7177 193.851 27.1642C193.186 27.6107 192.386 27.8079 191.592 27.7212C191.039 27.7359 190.49 27.6293 189.982 27.409C189.474 27.1886 189.02 26.8597 188.651 26.4451C188.282 26.0304 188.007 25.54 187.846 25.0078C187.684 24.4757 187.64 23.9145 187.715 23.3633C187.642 22.8104 187.687 22.248 187.848 21.7143C188.009 21.1805 188.283 20.6878 188.65 20.2695C189.017 19.8513 189.468 19.5172 189.975 19.2899C190.481 19.0627 191.03 18.9475 191.585 18.9523C193.919 18.9523 195.328 20.5573 195.328 23.2085V23.79H189.402V23.8833C189.377 24.1932 189.415 24.505 189.516 24.7989C189.617 25.0929 189.778 25.3623 189.988 25.59C190.199 25.8178 190.454 25.9987 190.738 26.1214C191.022 26.244 191.328 26.3055 191.637 26.3021C192.033 26.3499 192.435 26.2782 192.79 26.0959C193.146 25.9136 193.439 25.6291 193.634 25.2785L195.228 25.2786ZM189.402 22.5576H193.641C193.662 22.2743 193.624 21.9896 193.529 21.722C193.434 21.4545 193.284 21.2098 193.09 21.0038C192.895 20.7978 192.66 20.6351 192.399 20.526C192.138 20.4169 191.858 20.3639 191.575 20.3704C191.289 20.3668 191.005 20.4209 190.739 20.5296C190.474 20.6382 190.233 20.7992 190.031 21.003C189.828 21.2069 189.668 21.4495 189.56 21.7164C189.452 21.9834 189.399 22.2695 189.402 22.5576Z" fill="white"/>
</g>
<defs>
<clipPath id="clip0_2176_3747">
<rect width="223" height="75" fill="white"/>
</clipPath>
</defs>
</svg>
