<svg width="166" height="59" viewBox="0 0 166 59" fill="none" xmlns="http://www.w3.org/2000/svg">
<path d="M139.941 37.8851V0.573244L147.496 0.573244V2.08448L147.598 2.13659C149.271 0.833802 151.502 1.52588e-05 153.986 1.52588e-05C160.324 1.52588e-05 165.75 5.21117 165.75 13.1321C165.75 21.3136 159.969 26.9938 152.617 26.9938C150.691 26.9938 149.068 26.5769 147.75 25.9516L147.648 26.0037V37.8851H139.941ZM147.648 19.4897C148.662 20.063 150.133 20.532 151.603 20.532C155.761 20.532 157.992 17.4574 157.992 13.6011C157.992 9.74487 155.761 6.67029 151.907 6.67029C150.184 6.67029 148.662 7.34774 147.648 8.18152V19.4897Z" fill="#1C1B1B"/>
<path d="M120.424 26.9938C112.464 26.9938 106.531 21.1052 106.531 13.4969C106.531 5.88862 112.464 1.52588e-05 120.424 1.52588e-05C128.384 1.52588e-05 134.317 5.88862 134.317 13.4969C134.317 21.1052 128.384 26.9938 120.424 26.9938ZM120.424 20.1672C123.923 20.1672 126.61 17.1968 126.61 13.4969C126.61 9.79699 123.923 6.82663 120.424 6.82663C116.925 6.82663 114.238 9.79699 114.238 13.4969C114.238 17.1968 116.925 20.1672 120.424 20.1672Z" fill="#1C1B1B"/>
<path d="M60.9531 26.4206L60.9531 0.573244L68.5587 0.573244V2.70982L68.6601 2.76193C70.5868 1.19858 73.0206 1.52588e-05 76.1135 1.52588e-05C78.9022 1.52588e-05 81.7416 1.04225 83.3134 3.5436C85.8486 1.3028 88.8401 1.52588e-05 92.1358 1.52588e-05C94.9245 1.52588e-05 97.1555 0.938024 98.6766 2.60559C100.198 4.27316 100.908 6.46185 100.908 10.1618V26.4206L93.2006 26.4206V11.4646C93.2006 9.64065 92.9471 8.70264 92.2879 7.92097C91.6288 7.1393 90.6147 6.82663 89.5499 6.82663C87.7246 6.82663 86.0007 7.71252 84.7331 8.85898C84.7838 9.17164 84.7838 9.58854 84.7838 9.95332V26.4206H77.0769V11.4646C77.0769 9.69276 76.8741 8.70264 76.1642 7.92097C75.4544 7.1393 74.491 6.82663 73.3755 6.82663C71.6516 6.82663 69.877 7.76463 68.6601 8.85898V26.4206H60.9531Z" fill="#1C1B1B"/>
<path d="M41.4397 26.9938C33.4792 26.9938 27.5469 21.1052 27.5469 13.4969C27.5469 5.88862 33.4792 1.52588e-05 41.4397 1.52588e-05C49.4001 1.52588e-05 55.3324 5.88862 55.3324 13.4969C55.3324 21.1052 49.4001 26.9938 41.4397 26.9938ZM41.4397 20.1672C44.9382 20.1672 47.6255 17.1968 47.6255 13.4969C47.6255 9.79699 44.9382 6.82663 41.4397 6.82663C37.9411 6.82663 35.2538 9.79699 35.2538 13.4969C35.2538 17.1968 37.9411 20.1672 41.4397 20.1672Z" fill="#1C1B1B"/>
<path d="M7.87109 6.35571L21.9257 6.35571V20.8009H7.87109L7.87109 6.35571Z" fill="#1C1B1B"/>
<path d="M21.9257 24.8458C19.8841 26.2096 17.1431 27.157 14.336 27.157C5.86363 27.157 0 21.5069 0 13.6385C0 5.4554 6.27774 0 14.4439 0C17.2 0 19.9862 0.474487 21.9257 1.73342V8.66712C19.9352 7.30327 17.3991 6.9337 14.8982 6.9337C10.5089 6.9337 7.87076 9.64431 7.87076 13.5785C7.87076 17.5651 10.739 20.2233 15.1793 20.2233C17.7312 20.2233 20.2924 19.2234 21.9257 17.9121V24.8458Z" fill="#1C1B1B"/>
<path d="M11.8438 8.62395L11.8438 18.606C11.8438 19.4457 12.6388 20.1264 13.6196 20.1264C14.6004 20.1264 15.3955 19.4457 15.3955 18.606L15.3955 8.62395C15.3955 7.7842 14.6004 7.10345 13.6196 7.10345C12.6388 7.10345 11.8438 7.7842 11.8438 8.62395Z" fill="#F2F2F2"/>
<path d="M7.10547 8.62395L7.10547 18.606C7.10547 19.4457 7.90055 20.1264 8.88133 20.1264C9.86211 20.1264 10.6572 19.4457 10.6572 18.606L10.6572 8.62395C10.6572 7.7842 9.86211 7.10345 8.88133 7.10345C7.90055 7.10345 7.10547 7.7842 7.10547 8.62395Z" fill="#F2F2F2"/>
<path d="M22.0022 11.8391L14.4768 11.8391C13.933 11.8391 13.4922 12.6152 13.4922 13.5725C13.4922 14.5299 13.933 15.306 14.4768 15.306L22.0022 15.306V13.5451V11.8391Z" fill="#F2F2F2"/>
<path d="M1.77338 53.9426V47.3826H0.509375V46.0706H1.77338V44.2306C1.77338 42.4866 2.60538 41.5426 4.20538 41.5426C4.66938 41.5426 5.16538 41.6386 5.45338 41.7666V43.0306C5.16538 42.9186 4.78138 42.8386 4.42938 42.8386C3.53338 42.8386 3.21338 43.3666 3.21338 44.2946V46.0706H5.26138V47.3826H3.21338V53.9426H1.77338ZM10.3644 54.1186C7.98038 54.1186 6.20438 52.3266 6.20438 50.0066C6.20438 47.6866 7.98038 45.8946 10.3644 45.8946C12.7484 45.8946 14.5244 47.6866 14.5244 50.0066C14.5244 52.3266 12.7484 54.1186 10.3644 54.1186ZM10.3644 52.8066C11.9324 52.8066 13.0844 51.5906 13.0844 50.0066C13.0844 48.4226 11.9324 47.2066 10.3644 47.2066C8.79638 47.2066 7.64438 48.4226 7.64438 50.0066C7.64438 51.5906 8.79638 52.8066 10.3644 52.8066ZM16.514 53.9426V46.0706H17.954V47.2226L17.986 47.2386C18.53 46.4706 19.394 46.0066 20.322 46.0066C20.482 46.0066 20.658 46.0226 20.834 46.0706V47.4946C20.642 47.4466 20.45 47.4306 20.274 47.4306C19.202 47.4306 18.45 47.9746 17.954 48.8226V53.9426H16.514ZM26.648 55.5586C27.32 56.0226 28.264 56.3266 29.208 56.3266C30.808 56.3266 31.816 55.4146 31.816 53.8946V53.2546L31.784 53.2386C31.176 53.7026 30.376 53.9586 29.544 53.9586C27.416 53.9586 25.752 52.3746 25.752 50.0226C25.752 47.7026 27.416 45.8946 29.864 45.8946C30.76 45.8946 31.496 46.1346 32.104 46.4546L33.256 46.1826V53.9266C33.256 56.2306 31.736 57.6226 29.272 57.6226C28.248 57.6226 27.32 57.3666 26.648 56.9826V55.5586ZM27.208 49.9586C27.208 51.5426 28.216 52.6946 29.832 52.6946C30.584 52.6946 31.32 52.4066 31.816 51.9906V47.6866C31.32 47.3986 30.616 47.1746 29.928 47.1746C28.216 47.1746 27.208 48.4066 27.208 49.9586ZM37.5876 57.4626H36.0196L38.1476 53.0946L34.8676 46.0706H36.4676L37.8436 49.0466C38.2116 49.8466 38.5956 50.6946 38.9156 51.4146H38.9476C39.2996 50.6306 39.6516 49.8466 40.0196 49.0466L41.3956 46.0706H42.9156L37.5876 57.4626ZM44.5765 53.9426V46.0706H46.0165V46.9986L46.0485 47.0146C46.7045 46.3906 47.6485 45.8946 48.7045 45.8946C49.6965 45.8946 50.6565 46.3266 51.1205 47.2226C52.0165 46.3746 53.0085 45.8946 54.1125 45.8946C54.9765 45.8946 55.6805 46.1826 56.1605 46.7266C56.6405 47.2706 56.8325 47.9106 56.8325 49.0146V53.9426H55.3925V49.2706C55.3925 48.5346 55.2805 48.0546 54.9925 47.7186C54.7045 47.3826 54.2245 47.2386 53.7925 47.2386C52.8965 47.2386 51.9525 47.7986 51.4085 48.4386C51.4245 48.6146 51.4245 48.8226 51.4245 49.0306V53.9426H49.9845V49.2706C49.9845 48.4546 49.8885 48.0706 49.6005 47.7346C49.3125 47.3986 48.8805 47.2386 48.4005 47.2386C47.4725 47.2386 46.5765 47.7666 46.0165 48.3746V53.9426H44.5765ZM63.2171 53.9426V46.0706H64.6571V46.9986L64.6891 47.0146C65.3451 46.3906 66.2891 45.8946 67.3451 45.8946C68.3371 45.8946 69.2971 46.3266 69.7611 47.2226C70.6571 46.3746 71.6491 45.8946 72.7531 45.8946C73.6171 45.8946 74.3211 46.1826 74.8011 46.7266C75.2811 47.2706 75.4731 47.9106 75.4731 49.0146V53.9426H74.0331V49.2706C74.0331 48.5346 73.9211 48.0546 73.6331 47.7186C73.3451 47.3826 72.8651 47.2386 72.4331 47.2386C71.5371 47.2386 70.5931 47.7986 70.0491 48.4386C70.0651 48.6146 70.0651 48.8226 70.0651 49.0306V53.9426H68.6251V49.2706C68.6251 48.4546 68.5291 48.0706 68.2411 47.7346C67.9531 47.3986 67.5211 47.2386 67.0411 47.2386C66.1131 47.2386 65.2171 47.7666 64.6571 48.3746V53.9426H63.2171ZM84.5108 53.3826C83.7908 53.8466 82.7028 54.1186 81.7108 54.1186C79.2148 54.1186 77.4388 52.5346 77.4388 50.0386C77.4388 47.5266 79.1988 45.8946 81.3428 45.8946C83.2788 45.8946 84.9427 47.2386 84.9427 49.7186C84.9427 49.9586 84.9268 50.2786 84.9108 50.4546H78.8948C79.0868 51.9746 80.2388 52.8226 81.8068 52.8226C82.8308 52.8226 83.7588 52.4546 84.5108 51.9106V53.3826ZM78.9108 49.2866H83.5508C83.4388 47.7506 82.3188 47.1906 81.3268 47.1906C80.2388 47.1906 79.1508 47.8786 78.9108 49.2866ZM86.9984 53.9426V46.0706H88.4384V46.9986L88.4704 47.0146C89.1264 46.3906 90.0704 45.8946 91.1264 45.8946C92.1184 45.8946 93.0784 46.3266 93.5424 47.2226C94.4384 46.3746 95.4304 45.8946 96.5344 45.8946C97.3984 45.8946 98.1024 46.1826 98.5824 46.7266C99.0624 47.2706 99.2544 47.9106 99.2544 49.0146V53.9426H97.8144V49.2706C97.8144 48.5346 97.7024 48.0546 97.4144 47.7186C97.1264 47.3826 96.6464 47.2386 96.2144 47.2386C95.3184 47.2386 94.3744 47.7986 93.8304 48.4386C93.8464 48.6146 93.8464 48.8226 93.8464 49.0306V53.9426H92.4064V49.2706C92.4064 48.4546 92.3104 48.0706 92.0224 47.7346C91.7344 47.3986 91.3024 47.2386 90.8224 47.2386C89.8944 47.2386 88.9984 47.7666 88.4384 48.3746V53.9426H86.9984ZM101.764 53.8786V41.7186H103.204V46.6786L103.236 46.6946C103.86 46.1826 104.644 45.8946 105.556 45.8946C107.636 45.8946 109.3 47.4786 109.3 49.8946C109.3 52.3426 107.556 54.1186 105.14 54.1186C104.292 54.1186 103.572 53.9106 102.932 53.5906L101.764 53.8786ZM103.204 52.3426C103.7 52.6466 104.452 52.8546 105.14 52.8546C106.772 52.8546 107.844 51.6226 107.844 49.9586C107.844 48.3746 106.852 47.1906 105.236 47.1906C104.42 47.1906 103.716 47.5106 103.204 47.9586V52.3426ZM117.808 53.3826C117.088 53.8466 116 54.1186 115.008 54.1186C112.512 54.1186 110.736 52.5346 110.736 50.0386C110.736 47.5266 112.496 45.8946 114.64 45.8946C116.576 45.8946 118.24 47.2386 118.24 49.7186C118.24 49.9586 118.224 50.2786 118.208 50.4546H112.192C112.384 51.9746 113.536 52.8226 115.104 52.8226C116.128 52.8226 117.056 52.4546 117.808 51.9106V53.3826ZM112.208 49.2866H116.848C116.736 47.7506 115.616 47.1906 114.624 47.1906C113.536 47.1906 112.448 47.8786 112.208 49.2866ZM120.295 53.9426V46.0706H121.735V47.2226L121.767 47.2386C122.311 46.4706 123.175 46.0066 124.103 46.0066C124.263 46.0066 124.439 46.0226 124.615 46.0706V47.4946C124.423 47.4466 124.231 47.4306 124.055 47.4306C122.983 47.4306 122.231 47.9746 121.735 48.8226V53.9426H120.295ZM128.89 54.1186C127.882 54.1186 126.698 53.9106 125.85 53.3986V51.9106C126.778 52.5346 127.978 52.8226 128.97 52.8226C130.042 52.8226 130.746 52.5026 130.746 51.7506C130.746 51.3026 130.506 51.0146 129.818 50.8386C129.13 50.6626 127.786 50.5506 126.97 50.1986C126.154 49.8466 125.77 49.2066 125.77 48.3266C125.77 46.7426 127.114 45.8946 128.922 45.8946C129.914 45.8946 131.018 46.1346 131.738 46.5186V47.9266C130.858 47.4306 129.786 47.1906 128.906 47.1906C127.914 47.1906 127.21 47.4946 127.21 48.1986C127.21 48.6786 127.514 48.9506 128.266 49.1106C129.018 49.2706 130.202 49.3826 130.986 49.7186C131.77 50.0546 132.186 50.6626 132.186 51.6386C132.186 53.3186 130.666 54.1186 128.89 54.1186Z" fill="#D480FF"/>
</svg>
