<svg width="166" height="59" viewBox="0 0 166 59" fill="none" xmlns="http://www.w3.org/2000/svg">
<path d="M139.941 37.8851V0.573244L147.496 0.573244V2.08448L147.598 2.13659C149.271 0.833802 151.502 1.52588e-05 153.986 1.52588e-05C160.324 1.52588e-05 165.75 5.21117 165.75 13.1321C165.75 21.3136 159.969 26.9938 152.617 26.9938C150.691 26.9938 149.068 26.5769 147.75 25.9516L147.648 26.0037V37.8851H139.941ZM147.648 19.4897C148.662 20.063 150.133 20.532 151.603 20.532C155.761 20.532 157.992 17.4574 157.992 13.6011C157.992 9.74487 155.761 6.67029 151.907 6.67029C150.184 6.67029 148.662 7.34774 147.648 8.18152V19.4897Z" fill="#1C1B1B"/>
<path d="M120.426 26.9938C112.466 26.9938 106.533 21.1052 106.533 13.4969C106.533 5.88862 112.466 1.52588e-05 120.426 1.52588e-05C128.386 1.52588e-05 134.319 5.88862 134.319 13.4969C134.319 21.1052 128.386 26.9938 120.426 26.9938ZM120.426 20.1672C123.925 20.1672 126.612 17.1968 126.612 13.4969C126.612 9.79699 123.925 6.82663 120.426 6.82663C116.927 6.82663 114.24 9.79699 114.24 13.4969C114.24 17.1968 116.927 20.1672 120.426 20.1672Z" fill="#1C1B1B"/>
<path d="M60.9551 26.4206L60.9551 0.573244L68.5606 0.573244V2.70982L68.662 2.76193C70.5888 1.19858 73.0225 1.52588e-05 76.1155 1.52588e-05C78.9042 1.52588e-05 81.7436 1.04225 83.3154 3.5436C85.8505 1.3028 88.8421 1.52588e-05 92.1378 1.52588e-05C94.9265 1.52588e-05 97.1574 0.938024 98.6785 2.60559C100.2 4.27316 100.91 6.46185 100.91 10.1618V26.4206L93.2026 26.4206V11.4646C93.2026 9.64065 92.949 8.70264 92.2899 7.92097C91.6308 7.1393 90.6167 6.82663 89.5519 6.82663C87.7266 6.82663 86.0027 7.71252 84.7351 8.85898C84.7858 9.17164 84.7858 9.58854 84.7858 9.95332V26.4206H77.0788V11.4646C77.0788 9.69276 76.876 8.70264 76.1662 7.92097C75.4563 7.1393 74.4929 6.82663 73.3775 6.82663C71.6535 6.82663 69.8789 7.76463 68.662 8.85898V26.4206H60.9551Z" fill="#1C1B1B"/>
<path d="M41.4397 26.9938C33.4792 26.9938 27.5469 21.1052 27.5469 13.4969C27.5469 5.88862 33.4792 1.52588e-05 41.4397 1.52588e-05C49.4001 1.52588e-05 55.3324 5.88862 55.3324 13.4969C55.3324 21.1052 49.4001 26.9938 41.4397 26.9938ZM41.4397 20.1672C44.9382 20.1672 47.6255 17.1968 47.6255 13.4969C47.6255 9.79699 44.9382 6.82663 41.4397 6.82663C37.9411 6.82663 35.2538 9.79699 35.2538 13.4969C35.2538 17.1968 37.9411 20.1672 41.4397 20.1672Z" fill="#1C1B1B"/>
<path d="M7.87109 6.35571L21.9257 6.35571V20.8009H7.87109L7.87109 6.35571Z" fill="#1C1B1B"/>
<path d="M21.9257 24.8458C19.8841 26.2096 17.1431 27.157 14.336 27.157C5.86363 27.157 0 21.5069 0 13.6385C0 5.4554 6.27774 0 14.4439 0C17.2 0 19.9862 0.474487 21.9257 1.73342V8.66712C19.9352 7.30327 17.3991 6.9337 14.8982 6.9337C10.5089 6.9337 7.87076 9.64431 7.87076 13.5785C7.87076 17.5651 10.739 20.2233 15.1793 20.2233C17.7312 20.2233 20.2924 19.2234 21.9257 17.9121V24.8458Z" fill="#1C1B1B"/>
<path d="M11.8418 8.62395L11.8418 18.606C11.8418 19.4457 12.6369 20.1264 13.6177 20.1264C14.5984 20.1264 15.3935 19.4457 15.3935 18.606L15.3935 8.62395C15.3935 7.7842 14.5984 7.10345 13.6177 7.10345C12.6369 7.10345 11.8418 7.7842 11.8418 8.62395Z" fill="#F2F2F2"/>
<path d="M7.10547 8.62395L7.10547 18.606C7.10547 19.4457 7.90055 20.1264 8.88133 20.1264C9.86211 20.1264 10.6572 19.4457 10.6572 18.606L10.6572 8.62395C10.6572 7.7842 9.86211 7.10345 8.88133 7.10345C7.90055 7.10345 7.10547 7.7842 7.10547 8.62395Z" fill="#F2F2F2"/>
<path d="M22.0041 11.8391L14.4787 11.8391C13.935 11.8391 13.4941 12.6152 13.4941 13.5725C13.4941 14.5299 13.935 15.306 14.4787 15.306L22.0041 15.306V13.5451V11.8391Z" fill="#F2F2F2"/>
<path d="M3.92181 53.9426V47.3826H2.65781V46.0706H3.92181V44.2306C3.92181 42.4866 4.75381 41.5426 6.35381 41.5426C6.81781 41.5426 7.31381 41.6386 7.60181 41.7666V43.0306C7.31381 42.9186 6.92981 42.8386 6.57781 42.8386C5.68181 42.8386 5.36181 43.3666 5.36181 44.2946V46.0706H7.40981V47.3826H5.36181V53.9426H3.92181ZM12.5128 54.1186C10.1288 54.1186 8.35281 52.3266 8.35281 50.0066C8.35281 47.6866 10.1288 45.8946 12.5128 45.8946C14.8968 45.8946 16.6728 47.6866 16.6728 50.0066C16.6728 52.3266 14.8968 54.1186 12.5128 54.1186ZM12.5128 52.8066C14.0808 52.8066 15.2328 51.5906 15.2328 50.0066C15.2328 48.4226 14.0808 47.2066 12.5128 47.2066C10.9448 47.2066 9.79281 48.4226 9.79281 50.0066C9.79281 51.5906 10.9448 52.8066 12.5128 52.8066ZM18.6624 53.9426V46.0706H20.1024V47.2226L20.1344 47.2386C20.6784 46.4706 21.5424 46.0066 22.4704 46.0066C22.6304 46.0066 22.8064 46.0226 22.9824 46.0706V47.4946C22.7904 47.4466 22.5984 47.4306 22.4224 47.4306C21.3504 47.4306 20.5984 47.9746 20.1024 48.8226V53.9426H18.6624ZM28.7964 55.5586C29.4684 56.0226 30.4124 56.3266 31.3564 56.3266C32.9564 56.3266 33.9644 55.4146 33.9644 53.8946V53.2546L33.9324 53.2386C33.3244 53.7026 32.5244 53.9586 31.6924 53.9586C29.5644 53.9586 27.9004 52.3746 27.9004 50.0226C27.9004 47.7026 29.5644 45.8946 32.0124 45.8946C32.9084 45.8946 33.6444 46.1346 34.2524 46.4546L35.4044 46.1826V53.9266C35.4044 56.2306 33.8844 57.6226 31.4204 57.6226C30.3964 57.6226 29.4684 57.3666 28.7964 56.9826V55.5586ZM29.3564 49.9586C29.3564 51.5426 30.3644 52.6946 31.9804 52.6946C32.7324 52.6946 33.4684 52.4066 33.9644 51.9906V47.6866C33.4684 47.3986 32.7644 47.1746 32.0764 47.1746C30.3644 47.1746 29.3564 48.4066 29.3564 49.9586ZM39.7361 57.4626H38.1681L40.2961 53.0946L37.0161 46.0706H38.6161L39.9921 49.0466C40.3601 49.8466 40.7441 50.6946 41.0641 51.4146H41.0961C41.4481 50.6306 41.8001 49.8466 42.1681 49.0466L43.5441 46.0706H45.0641L39.7361 57.4626ZM46.7249 53.9426V46.0706H48.1649V46.9986L48.1969 47.0146C48.8529 46.3906 49.7969 45.8946 50.8529 45.8946C51.8449 45.8946 52.8049 46.3266 53.2689 47.2226C54.1649 46.3746 55.1569 45.8946 56.2609 45.8946C57.1249 45.8946 57.8289 46.1826 58.3089 46.7266C58.7889 47.2706 58.9809 47.9106 58.9809 49.0146V53.9426H57.5409V49.2706C57.5409 48.5346 57.4289 48.0546 57.1409 47.7186C56.8529 47.3826 56.3729 47.2386 55.9409 47.2386C55.0449 47.2386 54.1009 47.7986 53.5569 48.4386C53.5729 48.6146 53.5729 48.8226 53.5729 49.0306V53.9426H52.1329V49.2706C52.1329 48.4546 52.0369 48.0706 51.7489 47.7346C51.4609 47.3986 51.0289 47.2386 50.5489 47.2386C49.6209 47.2386 48.7249 47.7666 48.1649 48.3746V53.9426H46.7249ZM65.3656 53.8786V41.7186H66.8056V46.6786L66.8376 46.6946C67.4616 46.1826 68.2456 45.8946 69.1576 45.8946C71.2376 45.8946 72.9016 47.4786 72.9016 49.8946C72.9016 52.3426 71.1576 54.1186 68.7416 54.1186C67.8936 54.1186 67.1736 53.9106 66.5336 53.5906L65.3656 53.8786ZM66.8056 52.3426C67.3016 52.6466 68.0536 52.8546 68.7416 52.8546C70.3736 52.8546 71.4456 51.6226 71.4456 49.9586C71.4456 48.3746 70.4536 47.1906 68.8376 47.1906C68.0216 47.1906 67.3176 47.5106 66.8056 47.9586V52.3426ZM74.8812 53.9426V46.0706H76.3212V47.2226L76.3532 47.2386C76.8972 46.4706 77.7612 46.0066 78.6892 46.0066C78.8492 46.0066 79.0252 46.0226 79.2012 46.0706V47.4946C79.0092 47.4466 78.8172 47.4306 78.6412 47.4306C77.5692 47.4306 76.8172 47.9746 76.3212 48.8226V53.9426H74.8812ZM87.6426 53.9106C87.4026 53.9906 87.0826 54.0866 86.7146 54.0866C85.9786 54.0866 85.4186 53.7826 85.1466 53.2226H85.1146C84.5706 53.6866 83.7066 54.1026 82.6346 54.1026C81.0986 54.1026 79.9146 53.2706 79.9146 51.7826C79.9146 50.1186 81.2266 49.3506 83.1626 49.3506C83.7066 49.3506 84.3306 49.4146 84.9066 49.4946V48.8386C84.9066 47.7026 84.1546 47.1906 82.8106 47.1906C81.8826 47.1906 81.0826 47.4786 80.5386 47.8306V46.5186C81.0986 46.1666 81.9786 45.8946 83.0666 45.8946C85.1626 45.8946 86.3306 46.8546 86.3306 48.6146V52.0066C86.3306 52.4386 86.5066 52.8226 87.0986 52.8226C87.3066 52.8226 87.4986 52.7746 87.6426 52.6946V53.9106ZM82.9066 52.8706C83.6746 52.8706 84.4266 52.5986 84.9066 52.1666V50.5986C84.4266 50.5186 83.8026 50.4706 83.3226 50.4706C82.2666 50.4706 81.3546 50.7586 81.3546 51.6866C81.3546 52.5026 82.0586 52.8706 82.9066 52.8706ZM89.0062 53.9426V46.0706H90.4462V46.9986L90.4782 47.0146C91.1502 46.3906 92.1102 45.8946 93.2302 45.8946C94.0782 45.8946 94.7662 46.1666 95.2782 46.7106C95.7902 47.2546 95.9822 47.9746 95.9822 49.0146V53.9426H94.5422V49.1746C94.5422 48.5026 94.4462 48.0226 94.1262 47.7026C93.8062 47.3826 93.3582 47.2386 92.8622 47.2386C91.9662 47.2386 91.0382 47.7186 90.4462 48.3746V53.9426H89.0062ZM104.075 53.9426V53.3506L104.043 53.3346C103.499 53.7986 102.699 54.1186 101.739 54.1186C99.6749 54.1186 97.9629 52.5826 97.9629 50.1346C97.9629 47.7346 99.6589 45.8946 102.075 45.8946C102.859 45.8946 103.483 46.1026 104.027 46.3586L104.059 46.3426V41.7186H105.499V53.9426H104.075ZM102.027 52.8386C102.843 52.8386 103.531 52.5186 104.059 52.0386V47.7026C103.547 47.3986 102.875 47.1746 102.155 47.1746C100.443 47.1746 99.4189 48.4706 99.4189 50.0706C99.4189 51.6546 100.411 52.8386 102.027 52.8386ZM110.742 54.1186C109.734 54.1186 108.55 53.9106 107.702 53.3986V51.9106C108.63 52.5346 109.83 52.8226 110.822 52.8226C111.894 52.8226 112.598 52.5026 112.598 51.7506C112.598 51.3026 112.358 51.0146 111.67 50.8386C110.982 50.6626 109.638 50.5506 108.822 50.1986C108.006 49.8466 107.622 49.2066 107.622 48.3266C107.622 46.7426 108.966 45.8946 110.774 45.8946C111.766 45.8946 112.87 46.1346 113.59 46.5186V47.9266C112.71 47.4306 111.638 47.1906 110.758 47.1906C109.766 47.1906 109.062 47.4946 109.062 48.1986C109.062 48.6786 109.366 48.9506 110.118 49.1106C110.87 49.2706 112.054 49.3826 112.838 49.7186C113.622 50.0546 114.038 50.6626 114.038 51.6386C114.038 53.3186 112.518 54.1186 110.742 54.1186Z" fill="#D480FF"/>
</svg>
