<svg width="278" height="87" viewBox="0 0 278 87" fill="none" xmlns="http://www.w3.org/2000/svg">
<path d="M36.0512 80V69.075H33.9262V67.725H36.0512V64.375C36.0512 62 37.2262 60.65 39.3762 60.65C40.0262 60.65 40.6762 60.775 41.1012 60.975V62.3C40.6762 62.125 40.1262 62 39.5762 62C38.1012 62 37.5262 62.9 37.5262 64.45V67.725H40.9762V69.075H37.5262V80H36.0512ZM48.9346 80.25C45.2596 80.25 42.5596 77.45 42.5596 73.85C42.5596 70.275 45.2596 67.475 48.9346 67.475C52.6096 67.475 55.3096 70.275 55.3096 73.85C55.3096 77.45 52.6096 80.25 48.9346 80.25ZM48.9346 78.9C51.7596 78.9 53.8346 76.725 53.8346 73.85C53.8346 71 51.7596 68.825 48.9346 68.825C46.1096 68.825 44.0346 71 44.0346 73.85C44.0346 76.725 46.1096 78.9 48.9346 78.9ZM58.7434 80V67.725H60.2184V69.725L60.2684 69.75C61.2184 68.475 62.6434 67.575 64.2434 67.575C64.5184 67.575 64.7434 67.6 64.9684 67.65V69.1C64.7434 69.05 64.4934 69.025 64.2184 69.025C62.5434 69.025 61.2184 69.9 60.2184 71.425V80H58.7434ZM74.1109 83.175C75.1859 83.95 76.6109 84.4 78.0609 84.4C80.8359 84.4 82.5109 82.825 82.5109 80.2V78.65L82.4859 78.625C81.4609 79.55 80.0859 80.075 78.6109 80.075C75.2609 80.075 72.7359 77.55 72.7359 73.925C72.7359 70.375 75.2109 67.475 79.0359 67.475C80.4859 67.475 81.7609 67.9 82.8109 68.5L83.9859 68.225V80.225C83.9859 83.575 81.8359 85.725 78.1109 85.725C76.5609 85.725 75.1859 85.325 74.1109 84.675V83.175ZM74.2109 73.85C74.2109 76.7 76.0859 78.775 78.8609 78.775C80.2609 78.775 81.6109 78.175 82.5109 77.25V69.8C81.6609 69.25 80.3859 68.8 79.0859 68.8C76.0859 68.8 74.2109 71.025 74.2109 73.85ZM90.3832 85.5H88.7832L92.1332 78.675L86.9082 67.725H88.5332L90.9832 72.925C91.6332 74.3 92.3332 75.775 92.8832 77.05H92.9332C93.5582 75.675 94.1832 74.3 94.8582 72.9L97.3082 67.725H98.8582L90.3832 85.5ZM101.834 80V67.725H103.309V69.375L103.359 69.4C104.409 68.4 105.984 67.475 107.859 67.475C109.534 67.475 111.009 68.225 111.659 69.675C113.009 68.45 114.634 67.475 116.609 67.475C117.934 67.475 118.984 67.875 119.784 68.725C120.559 69.575 120.859 70.625 120.859 72.35V80H119.409V72.625C119.409 71.225 119.184 70.35 118.634 69.75C118.059 69.15 117.259 68.85 116.334 68.85C114.659 68.85 113.109 69.775 111.984 70.925C112.059 71.35 112.084 71.8 112.084 72.35V80H110.634V72.6C110.634 71.15 110.434 70.375 109.884 69.75C109.309 69.15 108.559 68.85 107.584 68.85C105.934 68.85 104.434 69.725 103.309 70.825V80H101.834ZM131.326 80V67.725H132.801V69.375L132.851 69.4C133.901 68.4 135.476 67.475 137.351 67.475C139.026 67.475 140.501 68.225 141.151 69.675C142.501 68.45 144.126 67.475 146.101 67.475C147.426 67.475 148.476 67.875 149.276 68.725C150.051 69.575 150.351 70.625 150.351 72.35V80H148.901V72.625C148.901 71.225 148.676 70.35 148.126 69.75C147.551 69.15 146.751 68.85 145.826 68.85C144.151 68.85 142.601 69.775 141.476 70.925C141.551 71.35 141.576 71.8 141.576 72.35V80H140.126V72.6C140.126 71.15 139.926 70.375 139.376 69.75C138.801 69.15 138.051 68.85 137.076 68.85C135.426 68.85 133.926 69.725 132.801 70.825V80H131.326ZM164.566 79.075C163.441 79.8 161.841 80.25 160.316 80.25C156.491 80.25 153.766 77.725 153.766 73.9C153.766 70.05 156.441 67.475 159.791 67.475C162.766 67.475 165.266 69.525 165.266 73.225C165.266 73.6 165.241 74 165.216 74.25H155.241C155.416 77.075 157.416 78.9 160.391 78.9C161.966 78.9 163.416 78.375 164.566 77.525V79.075ZM155.266 73.025H163.841C163.791 69.8 161.516 68.825 159.766 68.825C157.641 68.825 155.566 70.25 155.266 73.025ZM168.704 80V67.725H170.179V69.375L170.229 69.4C171.279 68.4 172.854 67.475 174.729 67.475C176.404 67.475 177.879 68.225 178.529 69.675C179.879 68.45 181.504 67.475 183.479 67.475C184.804 67.475 185.854 67.875 186.654 68.725C187.429 69.575 187.729 70.625 187.729 72.35V80H186.279V72.625C186.279 71.225 186.054 70.35 185.504 69.75C184.929 69.15 184.129 68.85 183.204 68.85C181.529 68.85 179.979 69.775 178.854 70.925C178.929 71.35 178.954 71.8 178.954 72.35V80H177.504V72.6C177.504 71.15 177.304 70.375 176.754 69.75C176.179 69.15 175.429 68.85 174.454 68.85C172.804 68.85 171.304 69.725 170.179 70.825V80H168.704ZM192.069 79.525V60.9H193.544V69L193.594 69.025C194.569 68.075 195.919 67.475 197.569 67.475C200.844 67.475 203.419 69.975 203.419 73.7C203.419 77.475 200.769 80.25 196.994 80.25C195.494 80.25 194.294 79.8 193.244 79.25L192.069 79.525ZM193.544 77.95C194.469 78.525 195.744 78.925 197.019 78.925C199.994 78.925 201.944 76.7 201.944 73.775C201.944 70.9 200.069 68.825 197.269 68.825C195.769 68.825 194.469 69.425 193.544 70.4V77.95ZM216.69 79.075C215.565 79.8 213.965 80.25 212.44 80.25C208.615 80.25 205.89 77.725 205.89 73.9C205.89 70.05 208.565 67.475 211.915 67.475C214.89 67.475 217.39 69.525 217.39 73.225C217.39 73.6 217.365 74 217.34 74.25H207.365C207.54 77.075 209.54 78.9 212.515 78.9C214.09 78.9 215.54 78.375 216.69 77.525V79.075ZM207.39 73.025H215.965C215.915 69.8 213.64 68.825 211.89 68.825C209.765 68.825 207.69 70.25 207.39 73.025ZM220.828 80V67.725H222.303V69.725L222.353 69.75C223.303 68.475 224.728 67.575 226.328 67.575C226.603 67.575 226.828 67.6 227.053 67.65V69.1C226.828 69.05 226.578 69.025 226.303 69.025C224.628 69.025 223.303 69.9 222.303 71.425V80H220.828ZM233.518 80.25C231.818 80.25 230.093 79.85 228.868 79.1V77.55C230.193 78.45 231.943 78.9 233.568 78.9C235.643 78.9 236.993 78.175 236.993 76.7C236.993 75.725 236.443 75.175 235.293 74.825C234.168 74.475 232.218 74.35 230.893 73.85C229.593 73.35 228.793 72.45 228.793 71C228.793 68.75 230.743 67.475 233.493 67.475C235.068 67.475 236.718 67.875 237.843 68.5V69.975C236.543 69.225 234.943 68.825 233.468 68.825C231.568 68.825 230.268 69.5 230.268 70.9C230.268 71.85 230.893 72.375 232.068 72.7C233.268 73.025 235.143 73.175 236.368 73.65C237.593 74.125 238.468 75 238.468 76.6C238.468 78.975 236.343 80.25 233.518 80.25Z" fill="#F2F2F2"/>
<path d="M234.713 63.5429V0.96145H247.384V3.49618L247.554 3.58358C250.361 1.39847 254.103 0 258.27 0C268.9 0 278 8.74043 278 22.0259C278 35.7484 268.305 45.2754 255.974 45.2754C252.742 45.2754 250.021 44.5762 247.809 43.5273L247.639 43.6147V63.5429H234.713ZM247.639 32.6892C249.34 33.6507 251.806 34.4373 254.273 34.4373C261.246 34.4373 264.988 29.2804 264.988 22.8125C264.988 16.3446 261.246 11.1878 254.783 11.1878C251.892 11.1878 249.34 12.324 247.639 13.7225V32.6892Z" fill="#F2F2F2"/>
<path d="M201.981 45.2754C188.63 45.2754 178.68 35.3988 178.68 22.6377C178.68 9.87669 188.63 0 201.981 0C215.333 0 225.283 9.87669 225.283 22.6377C225.283 35.3988 215.333 45.2754 201.981 45.2754ZM201.981 33.8255C207.849 33.8255 212.357 28.8434 212.357 22.6377C212.357 16.432 207.849 11.45 201.981 11.45C196.113 11.45 191.606 16.432 191.606 22.6377C191.606 28.8434 196.113 33.8255 201.981 33.8255Z" fill="#F2F2F2"/>
<path d="M102.236 44.314V0.961451H114.993V4.54503L115.163 4.63243C118.394 2.0103 122.477 0 127.664 0C132.341 0 137.104 1.74809 139.74 5.9435C143.992 2.18511 149.01 0 154.538 0C159.215 0 162.957 1.57328 165.508 4.37022C168.059 7.16716 169.25 10.8381 169.25 17.0438V44.314H156.324V19.2289C156.324 16.1698 155.898 14.5965 154.793 13.2855C153.687 11.9744 151.986 11.45 150.2 11.45C147.139 11.45 144.247 12.9358 142.121 14.8587C142.206 15.3832 142.206 16.0824 142.206 16.6942V44.314H129.28V19.2289C129.28 16.2572 128.94 14.5965 127.749 13.2855C126.559 11.9744 124.943 11.45 123.072 11.45C120.18 11.45 117.204 13.0232 115.163 14.8587V44.314H102.236Z" fill="#F2F2F2"/>
<path d="M69.5049 45.2754C56.1531 45.2754 46.2031 35.3988 46.2031 22.6377C46.2031 9.87669 56.1531 0 69.5049 0C82.8566 0 92.8066 9.87669 92.8066 22.6377C92.8066 35.3988 82.8566 45.2754 69.5049 45.2754ZM69.5049 33.8255C75.3728 33.8255 79.8801 28.8434 79.8801 22.6377C79.8801 16.432 75.3728 11.45 69.5049 11.45C63.6369 11.45 59.1296 16.432 59.1296 22.6377C59.1296 28.8434 63.6369 33.8255 69.5049 33.8255Z" fill="#F2F2F2"/>
<path fill-rule="evenodd" clip-rule="evenodd" d="M24.0452 45.5492C28.7534 45.5492 33.3508 43.9602 36.775 41.6727V30.0431L36.7745 30.0435V25.672H25.8126V31.2069C25.8126 32.6154 24.4791 33.7572 22.834 33.7572C21.189 33.7572 19.8555 32.6154 19.8555 31.2069V14.4646C19.8555 13.0561 21.189 11.9143 22.834 11.9143C24.4791 11.9143 25.8126 13.0561 25.8126 14.4646V19.8572H36.7745V14.5368L36.775 14.537V2.90746C33.522 0.795897 28.8487 6.10352e-05 24.2261 6.10352e-05C10.5294 6.10352e-05 0 9.15016 0 22.8753C0 36.0726 9.8348 45.5492 24.0452 45.5492ZM11.9121 31.2069V14.4646C11.9121 13.0561 13.2457 11.9143 14.8907 11.9143C16.5357 11.9143 17.8693 13.0561 17.8693 14.4646V31.2069C17.8693 32.6154 16.5357 33.7572 14.8907 33.7572C13.2457 33.7572 11.9121 32.6154 11.9121 31.2069Z" fill="#F2F2F2"/>
</svg>
