<svg width="278" height="87" viewBox="0 0 278 87" fill="none" xmlns="http://www.w3.org/2000/svg">
<path d="M50.8686 80V69.075H48.7436V67.725H50.8686V64.375C50.8686 62 52.0436 60.65 54.1936 60.65C54.8436 60.65 55.4936 60.775 55.9186 60.975V62.3C55.4936 62.125 54.9436 62 54.3936 62C52.9186 62 52.3436 62.9 52.3436 64.45V67.725H55.7936V69.075H52.3436V80H50.8686ZM63.752 80.25C60.077 80.25 57.377 77.45 57.377 73.85C57.377 70.275 60.077 67.475 63.752 67.475C67.427 67.475 70.127 70.275 70.127 73.85C70.127 77.45 67.427 80.25 63.752 80.25ZM63.752 78.9C66.577 78.9 68.652 76.725 68.652 73.85C68.652 71 66.577 68.825 63.752 68.825C60.927 68.825 58.852 71 58.852 73.85C58.852 76.725 60.927 78.9 63.752 78.9ZM73.5607 80V67.725H75.0357V69.725L75.0857 69.75C76.0357 68.475 77.4607 67.575 79.0607 67.575C79.3357 67.575 79.5607 67.6 79.7857 67.65V69.1C79.5607 69.05 79.3107 69.025 79.0357 69.025C77.3607 69.025 76.0357 69.9 75.0357 71.425V80H73.5607ZM88.9283 83.175C90.0033 83.95 91.4283 84.4 92.8783 84.4C95.6533 84.4 97.3283 82.825 97.3283 80.2V78.65L97.3033 78.625C96.2783 79.55 94.9033 80.075 93.4283 80.075C90.0783 80.075 87.5533 77.55 87.5533 73.925C87.5533 70.375 90.0283 67.475 93.8533 67.475C95.3033 67.475 96.5783 67.9 97.6283 68.5L98.8033 68.225V80.225C98.8033 83.575 96.6533 85.725 92.9283 85.725C91.3783 85.725 90.0033 85.325 88.9283 84.675V83.175ZM89.0283 73.85C89.0283 76.7 90.9033 78.775 93.6783 78.775C95.0783 78.775 96.4283 78.175 97.3283 77.25V69.8C96.4783 69.25 95.2033 68.8 93.9033 68.8C90.9033 68.8 89.0283 71.025 89.0283 73.85ZM105.201 85.5H103.601L106.951 78.675L101.726 67.725H103.351L105.801 72.925C106.451 74.3 107.151 75.775 107.701 77.05H107.751C108.376 75.675 109.001 74.3 109.676 72.9L112.126 67.725H113.676L105.201 85.5ZM116.652 80V67.725H118.127V69.375L118.177 69.4C119.227 68.4 120.802 67.475 122.677 67.475C124.352 67.475 125.827 68.225 126.477 69.675C127.827 68.45 129.452 67.475 131.427 67.475C132.752 67.475 133.802 67.875 134.602 68.725C135.377 69.575 135.677 70.625 135.677 72.35V80H134.227V72.625C134.227 71.225 134.002 70.35 133.452 69.75C132.877 69.15 132.077 68.85 131.152 68.85C129.477 68.85 127.927 69.775 126.802 70.925C126.877 71.35 126.902 71.8 126.902 72.35V80H125.452V72.6C125.452 71.15 125.252 70.375 124.702 69.75C124.127 69.15 123.377 68.85 122.402 68.85C120.752 68.85 119.252 69.725 118.127 70.825V80H116.652ZM151.594 80.25C147.919 80.25 145.219 77.45 145.219 73.85C145.219 70.275 147.919 67.475 151.594 67.475C155.269 67.475 157.969 70.275 157.969 73.85C157.969 77.45 155.269 80.25 151.594 80.25ZM151.594 78.9C154.419 78.9 156.494 76.725 156.494 73.85C156.494 71 154.419 68.825 151.594 68.825C148.769 68.825 146.694 71 146.694 73.85C146.694 76.725 148.769 78.9 151.594 78.9ZM163.817 80L159.492 67.725H161.042L163.167 73.825C163.667 75.225 164.142 76.65 164.592 78.05H164.642C165.117 76.625 165.642 75.2 166.142 73.825L168.367 67.725H169.367L171.592 73.825C172.092 75.225 172.592 76.625 173.092 78.05H173.142C173.592 76.625 174.042 75.25 174.542 73.825L176.667 67.725H178.192L173.842 80H172.417L170.217 73.975C169.767 72.725 169.267 71.275 168.867 70.05H168.817C168.417 71.275 167.892 72.7 167.442 73.975L165.267 80H163.817ZM181.202 80V67.725H182.677V69.4L182.727 69.425C183.802 68.425 185.427 67.475 187.402 67.475C188.702 67.475 189.777 67.875 190.577 68.7C191.402 69.55 191.702 70.675 191.702 72.35V80H190.227V72.55C190.227 71.2 190.027 70.325 189.427 69.725C188.852 69.15 188.052 68.85 187.052 68.85C185.402 68.85 183.852 69.675 182.677 70.85V80H181.202ZM205.872 79.075C204.747 79.8 203.147 80.25 201.622 80.25C197.797 80.25 195.072 77.725 195.072 73.9C195.072 70.05 197.747 67.475 201.097 67.475C204.072 67.475 206.572 69.525 206.572 73.225C206.572 73.6 206.547 74 206.522 74.25H196.547C196.722 77.075 198.722 78.9 201.697 78.9C203.272 78.9 204.722 78.375 205.872 77.525V79.075ZM196.572 73.025H205.147C205.097 69.8 202.822 68.825 201.072 68.825C198.947 68.825 196.872 70.25 196.572 73.025ZM210.011 80V67.725H211.486V69.725L211.536 69.75C212.486 68.475 213.911 67.575 215.511 67.575C215.786 67.575 216.011 67.6 216.236 67.65V69.1C216.011 69.05 215.761 69.025 215.486 69.025C213.811 69.025 212.486 69.9 211.486 71.425V80H210.011ZM222.701 80.25C221.001 80.25 219.276 79.85 218.051 79.1V77.55C219.376 78.45 221.126 78.9 222.751 78.9C224.826 78.9 226.176 78.175 226.176 76.7C226.176 75.725 225.626 75.175 224.476 74.825C223.351 74.475 221.401 74.35 220.076 73.85C218.776 73.35 217.976 72.45 217.976 71C217.976 68.75 219.926 67.475 222.676 67.475C224.251 67.475 225.901 67.875 227.026 68.5V69.975C225.726 69.225 224.126 68.825 222.651 68.825C220.751 68.825 219.451 69.5 219.451 70.9C219.451 71.85 220.076 72.375 221.251 72.7C222.451 73.025 224.326 73.175 225.551 73.65C226.776 74.125 227.651 75 227.651 76.6C227.651 78.975 225.526 80.25 222.701 80.25Z" fill="#F2F2F2"/>
<path d="M234.713 63.5429V0.96145H247.384V3.49618L247.554 3.58358C250.361 1.39847 254.103 0 258.27 0C268.9 0 278 8.74043 278 22.0259C278 35.7484 268.305 45.2754 255.974 45.2754C252.742 45.2754 250.021 44.5762 247.809 43.5273L247.639 43.6147V63.5429H234.713ZM247.639 32.6892C249.34 33.6507 251.807 34.4373 254.273 34.4373C261.246 34.4373 264.988 29.2804 264.988 22.8125C264.988 16.3446 261.246 11.1878 254.783 11.1878C251.892 11.1878 249.34 12.324 247.639 13.7225V32.6892Z" fill="#F2F2F2"/>
<path d="M201.981 45.2754C188.63 45.2754 178.68 35.3988 178.68 22.6377C178.68 9.87669 188.63 0 201.981 0C215.333 0 225.283 9.87669 225.283 22.6377C225.283 35.3988 215.333 45.2754 201.981 45.2754ZM201.981 33.8255C207.849 33.8255 212.357 28.8434 212.357 22.6377C212.357 16.432 207.849 11.45 201.981 11.45C196.113 11.45 191.606 16.432 191.606 22.6377C191.606 28.8434 196.113 33.8255 201.981 33.8255Z" fill="#F2F2F2"/>
<path d="M102.236 44.314V0.961451H114.993V4.54503L115.163 4.63243C118.394 2.0103 122.477 0 127.664 0C132.341 0 137.104 1.74809 139.74 5.9435C143.992 2.18511 149.01 0 154.538 0C159.215 0 162.957 1.57328 165.508 4.37022C168.059 7.16716 169.25 10.8381 169.25 17.0438V44.314H156.324V19.2289C156.324 16.1698 155.898 14.5965 154.793 13.2855C153.687 11.9744 151.986 11.45 150.2 11.45C147.139 11.45 144.247 12.9358 142.121 14.8587C142.206 15.3832 142.206 16.0824 142.206 16.6942V44.314H129.28V19.2289C129.28 16.2572 128.94 14.5965 127.749 13.2855C126.559 11.9744 124.943 11.45 123.072 11.45C120.18 11.45 117.204 13.0232 115.163 14.8587V44.314H102.236Z" fill="#F2F2F2"/>
<path d="M69.5049 45.2754C56.1531 45.2754 46.2031 35.3988 46.2031 22.6377C46.2031 9.87669 56.1531 0 69.5049 0C82.8566 0 92.8066 9.87669 92.8066 22.6377C92.8066 35.3988 82.8566 45.2754 69.5049 45.2754ZM69.5049 33.8255C75.3728 33.8255 79.8801 28.8434 79.8801 22.6377C79.8801 16.432 75.3728 11.45 69.5049 11.45C63.6369 11.45 59.1296 16.432 59.1296 22.6377C59.1296 28.8434 63.6369 33.8255 69.5049 33.8255Z" fill="#F2F2F2"/>
<path fill-rule="evenodd" clip-rule="evenodd" d="M24.0452 45.5492C28.7534 45.5492 33.3508 43.9602 36.775 41.6727V30.0431L36.7745 30.0434V25.6719H25.8126V31.2069C25.8126 32.6153 24.4791 33.7571 22.834 33.7571C21.189 33.7571 19.8555 32.6153 19.8555 31.2069V14.4645C19.8555 13.056 21.189 11.9143 22.834 11.9143C24.4791 11.9143 25.8126 13.056 25.8126 14.4645V19.8572H36.7745V14.5367L36.775 14.537V2.90739C33.522 0.795835 28.8487 0 24.2261 0C10.5294 0 0 9.1501 0 22.8752C0 36.0725 9.8348 45.5492 24.0452 45.5492ZM11.9121 31.2069V14.4645C11.9121 13.056 13.2457 11.9142 14.8907 11.9142C16.5357 11.9142 17.8693 13.056 17.8693 14.4645V31.2069C17.8693 32.6153 16.5357 33.7571 14.8907 33.7571C13.2457 33.7571 11.9121 32.6153 11.9121 31.2069Z" fill="#F2F2F2"/>
</svg>
