<svg width="278" height="87" viewBox="0 0 278 87" fill="none" xmlns="http://www.w3.org/2000/svg">
<path d="M51.7499 80V69.075H49.6249V67.725H51.7499V64.375C51.7499 62 52.9249 60.65 55.0749 60.65C55.7249 60.65 56.3749 60.775 56.7999 60.975V62.3C56.3749 62.125 55.8249 62 55.2749 62C53.7999 62 53.2249 62.9 53.2249 64.45V67.725H56.6749V69.075H53.2249V80H51.7499ZM64.6333 80.25C60.9583 80.25 58.2583 77.45 58.2583 73.85C58.2583 70.275 60.9583 67.475 64.6333 67.475C68.3083 67.475 71.0083 70.275 71.0083 73.85C71.0083 77.45 68.3083 80.25 64.6333 80.25ZM64.6333 78.9C67.4583 78.9 69.5333 76.725 69.5333 73.85C69.5333 71 67.4583 68.825 64.6333 68.825C61.8083 68.825 59.7333 71 59.7333 73.85C59.7333 76.725 61.8083 78.9 64.6333 78.9ZM74.4421 80V67.725H75.9171V69.725L75.9671 69.75C76.9171 68.475 78.3421 67.575 79.9421 67.575C80.2171 67.575 80.4421 67.6 80.6671 67.65V69.1C80.4421 69.05 80.1921 69.025 79.9171 69.025C78.2421 69.025 76.9171 69.9 75.9171 71.425V80H74.4421ZM89.8097 83.175C90.8847 83.95 92.3097 84.4 93.7597 84.4C96.5347 84.4 98.2097 82.825 98.2097 80.2V78.65L98.1847 78.625C97.1597 79.55 95.7847 80.075 94.3097 80.075C90.9597 80.075 88.4347 77.55 88.4347 73.925C88.4347 70.375 90.9097 67.475 94.7347 67.475C96.1847 67.475 97.4597 67.9 98.5097 68.5L99.6847 68.225V80.225C99.6847 83.575 97.5347 85.725 93.8097 85.725C92.2597 85.725 90.8847 85.325 89.8097 84.675V83.175ZM89.9097 73.85C89.9097 76.7 91.7847 78.775 94.5597 78.775C95.9597 78.775 97.3097 78.175 98.2097 77.25V69.8C97.3597 69.25 96.0847 68.8 94.7847 68.8C91.7847 68.8 89.9097 71.025 89.9097 73.85ZM106.082 85.5H104.482L107.832 78.675L102.607 67.725H104.232L106.682 72.925C107.332 74.3 108.032 75.775 108.582 77.05H108.632C109.257 75.675 109.882 74.3 110.557 72.9L113.007 67.725H114.557L106.082 85.5ZM117.533 80V67.725H119.008V69.375L119.058 69.4C120.108 68.4 121.683 67.475 123.558 67.475C125.233 67.475 126.708 68.225 127.358 69.675C128.708 68.45 130.333 67.475 132.308 67.475C133.633 67.475 134.683 67.875 135.483 68.725C136.258 69.575 136.558 70.625 136.558 72.35V80H135.108V72.625C135.108 71.225 134.883 70.35 134.333 69.75C133.758 69.15 132.958 68.85 132.033 68.85C130.358 68.85 128.808 69.775 127.683 70.925C127.758 71.35 127.783 71.8 127.783 72.35V80H126.333V72.6C126.333 71.15 126.133 70.375 125.583 69.75C125.008 69.15 124.258 68.85 123.283 68.85C121.633 68.85 120.133 69.725 119.008 70.825V80H117.533ZM147.025 79.525V60.9H148.5V69L148.55 69.025C149.525 68.075 150.875 67.475 152.525 67.475C155.8 67.475 158.375 69.975 158.375 73.7C158.375 77.475 155.725 80.25 151.95 80.25C150.45 80.25 149.25 79.8 148.2 79.25L147.025 79.525ZM148.5 77.95C149.425 78.525 150.7 78.925 151.975 78.925C154.95 78.925 156.9 76.7 156.9 73.775C156.9 70.9 155.025 68.825 152.225 68.825C150.725 68.825 149.425 69.425 148.5 70.4V77.95ZM161.771 80V67.725H163.246V69.725L163.296 69.75C164.246 68.475 165.671 67.575 167.271 67.575C167.546 67.575 167.771 67.6 167.996 67.65V69.1C167.771 69.05 167.521 69.025 167.246 69.025C165.571 69.025 164.246 69.9 163.246 71.425V80H161.771ZM181.021 79.95C180.696 80.05 180.271 80.175 179.771 80.175C178.671 80.175 177.846 79.65 177.521 78.675H177.471C176.471 79.525 175.021 80.225 173.296 80.225C170.971 80.225 169.146 79 169.146 76.75C169.146 74.2 171.196 73.1 174.071 73.1C175.121 73.1 176.221 73.225 177.271 73.375V71.775C177.271 69.775 175.946 68.825 173.646 68.825C172.196 68.825 170.996 69.225 170.071 69.8V68.425C170.921 67.9 172.221 67.475 173.846 67.475C177.046 67.475 178.721 69.025 178.721 71.55V77.2C178.721 78.05 178.996 78.875 180.121 78.875C180.446 78.875 180.771 78.775 181.021 78.675V79.95ZM173.521 78.95C174.921 78.95 176.321 78.375 177.271 77.5V74.55C176.296 74.375 175.171 74.275 174.196 74.275C172.296 74.275 170.596 74.825 170.596 76.65C170.596 78.275 171.996 78.95 173.521 78.95ZM183.304 80V67.725H184.779V69.4L184.829 69.425C185.904 68.425 187.529 67.475 189.504 67.475C190.804 67.475 191.879 67.875 192.679 68.7C193.504 69.55 193.804 70.675 193.804 72.35V80H192.329V72.55C192.329 71.2 192.129 70.325 191.529 69.725C190.954 69.15 190.154 68.85 189.154 68.85C187.504 68.85 185.954 69.675 184.779 70.85V80H183.304ZM207.074 80V78.75L207.049 78.725C206.124 79.625 204.699 80.25 203.074 80.25C199.849 80.25 197.199 77.825 197.199 74.05C197.199 70.4 199.749 67.475 203.574 67.475C204.949 67.475 206.074 67.9 207.024 68.4L207.074 68.375V60.9H208.524V80H207.074ZM203.349 78.925C204.824 78.925 206.124 78.325 207.074 77.325V69.825C206.149 69.225 204.949 68.8 203.649 68.8C200.574 68.8 198.674 71.1 198.674 74C198.674 76.85 200.524 78.925 203.349 78.925ZM216.819 80.25C215.119 80.25 213.394 79.85 212.169 79.1V77.55C213.494 78.45 215.244 78.9 216.869 78.9C218.944 78.9 220.294 78.175 220.294 76.7C220.294 75.725 219.744 75.175 218.594 74.825C217.469 74.475 215.519 74.35 214.194 73.85C212.894 73.35 212.094 72.45 212.094 71C212.094 68.75 214.044 67.475 216.794 67.475C218.369 67.475 220.019 67.875 221.144 68.5V69.975C219.844 69.225 218.244 68.825 216.769 68.825C214.869 68.825 213.569 69.5 213.569 70.9C213.569 71.85 214.194 72.375 215.369 72.7C216.569 73.025 218.444 73.175 219.669 73.65C220.894 74.125 221.769 75 221.769 76.6C221.769 78.975 219.644 80.25 216.819 80.25Z" fill="#F2F2F2"/>
<path d="M234.713 63.5429V0.96145H247.384V3.49618L247.554 3.58358C250.361 1.39847 254.103 0 258.27 0C268.9 0 278 8.74043 278 22.0259C278 35.7484 268.305 45.2754 255.974 45.2754C252.742 45.2754 250.021 44.5762 247.809 43.5273L247.639 43.6147V63.5429H234.713ZM247.639 32.6892C249.34 33.6507 251.806 34.4373 254.273 34.4373C261.246 34.4373 264.988 29.2804 264.988 22.8125C264.988 16.3446 261.246 11.1878 254.783 11.1878C251.892 11.1878 249.34 12.324 247.639 13.7225V32.6892Z" fill="#F2F2F2"/>
<path d="M201.981 45.2754C188.63 45.2754 178.68 35.3988 178.68 22.6377C178.68 9.87669 188.63 0 201.981 0C215.333 0 225.283 9.87669 225.283 22.6377C225.283 35.3988 215.333 45.2754 201.981 45.2754ZM201.981 33.8255C207.849 33.8255 212.357 28.8434 212.357 22.6377C212.357 16.432 207.849 11.45 201.981 11.45C196.113 11.45 191.606 16.432 191.606 22.6377C191.606 28.8434 196.113 33.8255 201.981 33.8255Z" fill="#F2F2F2"/>
<path d="M102.236 44.314V0.961451H114.993V4.54503L115.163 4.63243C118.394 2.0103 122.477 0 127.664 0C132.341 0 137.104 1.74809 139.74 5.9435C143.992 2.18511 149.01 0 154.538 0C159.215 0 162.957 1.57328 165.508 4.37022C168.059 7.16716 169.25 10.8381 169.25 17.0438V44.314H156.324V19.2289C156.324 16.1698 155.898 14.5965 154.793 13.2855C153.687 11.9744 151.986 11.45 150.2 11.45C147.139 11.45 144.247 12.9358 142.121 14.8587C142.206 15.3832 142.206 16.0824 142.206 16.6942V44.314H129.28V19.2289C129.28 16.2572 128.94 14.5965 127.749 13.2855C126.559 11.9744 124.943 11.45 123.072 11.45C120.18 11.45 117.204 13.0232 115.163 14.8587V44.314H102.236Z" fill="#F2F2F2"/>
<path d="M69.5049 45.2754C56.1531 45.2754 46.2031 35.3988 46.2031 22.6377C46.2031 9.87669 56.1531 0 69.5049 0C82.8566 0 92.8066 9.87669 92.8066 22.6377C92.8066 35.3988 82.8566 45.2754 69.5049 45.2754ZM69.5049 33.8255C75.3728 33.8255 79.8801 28.8434 79.8801 22.6377C79.8801 16.432 75.3728 11.45 69.5049 11.45C63.6369 11.45 59.1296 16.432 59.1296 22.6377C59.1296 28.8434 63.6369 33.8255 69.5049 33.8255Z" fill="#F2F2F2"/>
<path fill-rule="evenodd" clip-rule="evenodd" d="M24.0452 45.5492C28.7534 45.5492 33.3508 43.9602 36.775 41.6727V30.0431L36.7745 30.0435V25.672H25.8126V31.2069C25.8126 32.6154 24.4791 33.7572 22.834 33.7572C21.189 33.7572 19.8555 32.6154 19.8555 31.2069V14.4646C19.8555 13.0561 21.189 11.9143 22.834 11.9143C24.4791 11.9143 25.8126 13.0561 25.8126 14.4646V19.8572H36.7745V14.5368L36.775 14.537V2.90746C33.522 0.795897 28.8487 6.10352e-05 24.2261 6.10352e-05C10.5294 6.10352e-05 0 9.15016 0 22.8753C0 36.0726 9.8348 45.5492 24.0452 45.5492ZM11.9121 31.2069V14.4646C11.9121 13.0561 13.2457 11.9143 14.8907 11.9143C16.5357 11.9143 17.8693 13.0561 17.8693 14.4646V31.2069C17.8693 32.6154 16.5357 33.7572 14.8907 33.7572C13.2457 33.7572 11.9121 32.6154 11.9121 31.2069Z" fill="#F2F2F2"/>
</svg>
