<svg width="166" height="59" viewBox="0 0 166 59" fill="none" xmlns="http://www.w3.org/2000/svg">
<path d="M139.941 37.8851V0.573229L147.496 0.573229V2.08446L147.598 2.13657C149.271 0.833787 151.502 0 153.986 0C160.324 0 165.75 5.21115 165.75 13.1321C165.75 21.3136 159.969 26.9938 152.617 26.9938C150.691 26.9938 149.068 26.5769 147.75 25.9515L147.648 26.0037V37.8851H139.941ZM147.648 19.4897C148.662 20.0629 150.133 20.5319 151.603 20.5319C155.761 20.5319 157.992 17.4574 157.992 13.6011C157.992 9.74486 155.761 6.67028 151.907 6.67028C150.184 6.67028 148.662 7.34772 147.648 8.18151V19.4897Z" fill="#1C1B1B"/>
<path d="M120.426 26.9938C112.466 26.9938 106.533 21.1052 106.533 13.4969C106.533 5.88861 112.466 0 120.426 0C128.386 0 134.319 5.88861 134.319 13.4969C134.319 21.1052 128.386 26.9938 120.426 26.9938ZM120.426 20.1672C123.925 20.1672 126.612 17.1968 126.612 13.4969C126.612 9.79697 123.925 6.82661 120.426 6.82661C116.927 6.82661 114.24 9.79697 114.24 13.4969C114.24 17.1968 116.927 20.1672 120.426 20.1672Z" fill="#1C1B1B"/>
<path d="M60.9551 26.4205L60.9551 0.573229L68.5606 0.573229V2.7098L68.662 2.76191C70.5888 1.19857 73.0225 0 76.1155 0C78.9042 0 81.7436 1.04223 83.3154 3.54359C85.8505 1.30279 88.8421 0 92.1378 0C94.9265 0 97.1574 0.938009 98.6785 2.60558C100.2 4.27315 100.91 6.46183 100.91 10.1617V26.4205L93.2026 26.4205V11.4645C93.2026 9.64063 92.949 8.70263 92.2899 7.92095C91.6308 7.13928 90.6167 6.82661 89.5519 6.82661C87.7266 6.82661 86.0027 7.71251 84.7351 8.85896C84.7858 9.17163 84.7858 9.58852 84.7858 9.95331V26.4205H77.0788V11.4645C77.0788 9.69275 76.876 8.70263 76.1662 7.92095C75.4563 7.13928 74.4929 6.82661 73.3775 6.82661C71.6535 6.82661 69.8789 7.76462 68.662 8.85896V26.4205H60.9551Z" fill="#1C1B1B"/>
<path d="M41.4397 26.9938C33.4792 26.9938 27.5469 21.1052 27.5469 13.4969C27.5469 5.88861 33.4792 0 41.4397 0C49.4001 0 55.3324 5.88861 55.3324 13.4969C55.3324 21.1052 49.4001 26.9938 41.4397 26.9938ZM41.4397 20.1672C44.9382 20.1672 47.6255 17.1968 47.6255 13.4969C47.6255 9.79697 44.9382 6.82661 41.4397 6.82661C37.9411 6.82661 35.2538 9.79697 35.2538 13.4969C35.2538 17.1968 37.9411 20.1672 41.4397 20.1672Z" fill="#1C1B1B"/>
<path d="M7.87109 6.35571L21.9257 6.35571V20.8009H7.87109L7.87109 6.35571Z" fill="#1C1B1B"/>
<path d="M21.9257 24.8458C19.8841 26.2096 17.1431 27.157 14.336 27.157C5.86363 27.157 0 21.5069 0 13.6385C0 5.4554 6.27774 0 14.4439 0C17.2 0 19.9862 0.474487 21.9257 1.73342V8.66712C19.9352 7.30327 17.3991 6.9337 14.8982 6.9337C10.5089 6.9337 7.87076 9.64431 7.87076 13.5785C7.87076 17.5651 10.739 20.2233 15.1793 20.2233C17.7312 20.2233 20.2924 19.2234 21.9257 17.9121V24.8458Z" fill="#1C1B1B"/>
<path d="M11.8418 8.62384L11.8418 18.6058C11.8418 19.4456 12.6369 20.1263 13.6177 20.1263C14.5984 20.1263 15.3935 19.4456 15.3935 18.6058L15.3935 8.62384C15.3935 7.78409 14.5984 7.10335 13.6177 7.10335C12.6369 7.10335 11.8418 7.78409 11.8418 8.62384Z" fill="#F2F2F2"/>
<path d="M7.10547 8.62384L7.10547 18.6058C7.10547 19.4456 7.90055 20.1263 8.88133 20.1263C9.86211 20.1263 10.6572 19.4456 10.6572 18.6058L10.6572 8.62384C10.6572 7.78409 9.86211 7.10335 8.88133 7.10335C7.90055 7.10335 7.10547 7.78409 7.10547 8.62384Z" fill="#F2F2F2"/>
<path d="M22.0041 11.8391L14.4787 11.8391C13.935 11.8391 13.4941 12.6152 13.4941 13.5725C13.4941 14.5299 13.935 15.306 14.4787 15.306L22.0041 15.306V13.5451V11.8391Z" fill="#F2F2F2"/>
<path d="M1.78119 53.9426V47.3826H0.517188V46.0706H1.78119V44.2306C1.78119 42.4866 2.61319 41.5426 4.21319 41.5426C4.67719 41.5426 5.17319 41.6386 5.46119 41.7666V43.0306C5.17319 42.9186 4.78919 42.8386 4.43719 42.8386C3.54119 42.8386 3.22119 43.3666 3.22119 44.2946V46.0706H5.26919V47.3826H3.22119V53.9426H1.78119ZM10.3722 54.1186C7.98819 54.1186 6.21219 52.3266 6.21219 50.0066C6.21219 47.6866 7.98819 45.8946 10.3722 45.8946C12.7562 45.8946 14.5322 47.6866 14.5322 50.0066C14.5322 52.3266 12.7562 54.1186 10.3722 54.1186ZM10.3722 52.8066C11.9402 52.8066 13.0922 51.5906 13.0922 50.0066C13.0922 48.4226 11.9402 47.2066 10.3722 47.2066C8.80419 47.2066 7.65219 48.4226 7.65219 50.0066C7.65219 51.5906 8.80419 52.8066 10.3722 52.8066ZM16.5218 53.9426V46.0706H17.9618V47.2226L17.9938 47.2386C18.5378 46.4706 19.4018 46.0066 20.3298 46.0066C20.4898 46.0066 20.6658 46.0226 20.8418 46.0706V47.4946C20.6498 47.4466 20.4578 47.4306 20.2818 47.4306C19.2098 47.4306 18.4578 47.9746 17.9618 48.8226V53.9426H16.5218ZM26.6558 55.5586C27.3278 56.0226 28.2718 56.3266 29.2158 56.3266C30.8158 56.3266 31.8238 55.4146 31.8238 53.8946V53.2546L31.7918 53.2386C31.1838 53.7026 30.3838 53.9586 29.5518 53.9586C27.4238 53.9586 25.7598 52.3746 25.7598 50.0226C25.7598 47.7026 27.4238 45.8946 29.8718 45.8946C30.7678 45.8946 31.5038 46.1346 32.1118 46.4546L33.2638 46.1826V53.9266C33.2638 56.2306 31.7438 57.6226 29.2798 57.6226C28.2558 57.6226 27.3278 57.3666 26.6558 56.9826V55.5586ZM27.2158 49.9586C27.2158 51.5426 28.2238 52.6946 29.8398 52.6946C30.5918 52.6946 31.3278 52.4066 31.8238 51.9906V47.6866C31.3278 47.3986 30.6238 47.1746 29.9358 47.1746C28.2238 47.1746 27.2158 48.4066 27.2158 49.9586ZM37.5954 57.4626H36.0274L38.1554 53.0946L34.8754 46.0706H36.4754L37.8514 49.0466C38.2194 49.8466 38.6034 50.6946 38.9234 51.4146H38.9554C39.3074 50.6306 39.6594 49.8466 40.0274 49.0466L41.4034 46.0706H42.9234L37.5954 57.4626ZM44.5843 53.9426V46.0706H46.0243V46.9986L46.0563 47.0146C46.7123 46.3906 47.6563 45.8946 48.7123 45.8946C49.7043 45.8946 50.6643 46.3266 51.1283 47.2226C52.0243 46.3746 53.0163 45.8946 54.1203 45.8946C54.9843 45.8946 55.6883 46.1826 56.1683 46.7266C56.6483 47.2706 56.8403 47.9106 56.8403 49.0146V53.9426H55.4003V49.2706C55.4003 48.5346 55.2883 48.0546 55.0003 47.7186C54.7123 47.3826 54.2323 47.2386 53.8003 47.2386C52.9043 47.2386 51.9603 47.7986 51.4163 48.4386C51.4323 48.6146 51.4323 48.8226 51.4323 49.0306V53.9426H49.9923V49.2706C49.9923 48.4546 49.8963 48.0706 49.6083 47.7346C49.3203 47.3986 48.8883 47.2386 48.4083 47.2386C47.4803 47.2386 46.5843 47.7666 46.0243 48.3746V53.9426H44.5843ZM66.8409 54.1186C64.4569 54.1186 62.6809 52.3266 62.6809 50.0066C62.6809 47.6866 64.4569 45.8946 66.8409 45.8946C69.2249 45.8946 71.0009 47.6866 71.0009 50.0066C71.0009 52.3266 69.2249 54.1186 66.8409 54.1186ZM66.8409 52.8066C68.4089 52.8066 69.5609 51.5906 69.5609 50.0066C69.5609 48.4226 68.4089 47.2066 66.8409 47.2066C65.2729 47.2066 64.1209 48.4226 64.1209 50.0066C64.1209 51.5906 65.2729 52.8066 66.8409 52.8066ZM74.4879 53.9426L71.7519 46.0706H73.3199L74.4879 49.5746C74.7599 50.3906 75.0319 51.2226 75.2719 52.0066H75.3039C75.5759 51.2066 75.8799 50.3586 76.1679 49.5746L77.4639 46.0706H78.4879L79.7839 49.5746C80.0879 50.3906 80.3759 51.2066 80.6479 52.0066H80.6799C80.9199 51.1906 81.1759 50.4066 81.4479 49.5906L82.6159 46.0706H84.1199L81.3839 53.9426H79.9599L78.7279 50.5666C78.4719 49.8626 78.1839 49.0466 77.9599 48.3586H77.9279C77.7039 49.0466 77.4159 49.8626 77.1599 50.5666L75.9279 53.9426H74.4879ZM85.8031 53.9426V46.0706H87.2431V46.9986L87.2751 47.0146C87.9471 46.3906 88.9071 45.8946 90.0271 45.8946C90.8751 45.8946 91.5631 46.1666 92.0751 46.7106C92.5871 47.2546 92.7791 47.9746 92.7791 49.0146V53.9426H91.3391V49.1746C91.3391 48.5026 91.2431 48.0226 90.9231 47.7026C90.6031 47.3826 90.1551 47.2386 89.6591 47.2386C88.7631 47.2386 87.8351 47.7186 87.2431 48.3746V53.9426H85.8031ZM101.8 53.3826C101.08 53.8466 99.9918 54.1186 98.9998 54.1186C96.5038 54.1186 94.7278 52.5346 94.7278 50.0386C94.7278 47.5266 96.4878 45.8946 98.6318 45.8946C100.568 45.8946 102.232 47.2386 102.232 49.7186C102.232 49.9586 102.216 50.2786 102.2 50.4546H96.1838C96.3758 51.9746 97.5278 52.8226 99.0958 52.8226C100.12 52.8226 101.048 52.4546 101.8 51.9106V53.3826ZM96.1998 49.2866H100.84C100.728 47.7506 99.6078 47.1906 98.6158 47.1906C97.5278 47.1906 96.4398 47.8786 96.1998 49.2866ZM104.287 53.9426V46.0706H105.727V47.2226L105.759 47.2386C106.303 46.4706 107.167 46.0066 108.095 46.0066C108.255 46.0066 108.431 46.0226 108.607 46.0706V47.4946C108.415 47.4466 108.223 47.4306 108.047 47.4306C106.975 47.4306 106.223 47.9746 105.727 48.8226V53.9426H104.287ZM112.882 54.1186C111.874 54.1186 110.69 53.9106 109.842 53.3986V51.9106C110.77 52.5346 111.97 52.8226 112.962 52.8226C114.034 52.8226 114.738 52.5026 114.738 51.7506C114.738 51.3026 114.498 51.0146 113.81 50.8386C113.122 50.6626 111.778 50.5506 110.962 50.1986C110.146 49.8466 109.762 49.2066 109.762 48.3266C109.762 46.7426 111.106 45.8946 112.914 45.8946C113.906 45.8946 115.01 46.1346 115.73 46.5186V47.9266C114.85 47.4306 113.778 47.1906 112.898 47.1906C111.906 47.1906 111.202 47.4946 111.202 48.1986C111.202 48.6786 111.506 48.9506 112.258 49.1106C113.01 49.2706 114.194 49.3826 114.978 49.7186C115.762 50.0546 116.178 50.6626 116.178 51.6386C116.178 53.3186 114.658 54.1186 112.882 54.1186Z" fill="#D480FF"/>
</svg>
