<svg width="165" height="58" viewBox="0 0 165 58" fill="none" xmlns="http://www.w3.org/2000/svg">
<path d="M139.309 37.2792V0.564077L146.829 0.564077V2.05114L146.93 2.10242C148.596 0.820468 150.817 1.52588e-05 153.29 1.52588e-05C159.599 1.52588e-05 165 5.12783 165 12.9221C165 20.9728 159.246 26.5621 151.927 26.5621C150.009 26.5621 148.394 26.1519 147.082 25.5365L146.981 25.5878V37.2792H139.309ZM146.981 19.178C147.99 19.7421 149.454 20.2036 150.918 20.2036C155.057 20.2036 157.277 17.1782 157.277 13.3836C157.277 9.58903 155.057 6.56362 151.221 6.56362C149.504 6.56362 147.99 7.23023 146.981 8.05068V19.178Z" fill="#1C1B1B"/>
<path d="M119.881 26.5621C111.956 26.5621 106.051 20.7677 106.051 13.2811C106.051 5.79445 111.956 1.52588e-05 119.881 1.52588e-05C127.805 1.52588e-05 133.711 5.79445 133.711 13.2811C133.711 20.7677 127.805 26.5621 119.881 26.5621ZM119.881 19.8447C123.363 19.8447 126.039 16.9218 126.039 13.2811C126.039 9.64031 123.363 6.71745 119.881 6.71745C116.398 6.71745 113.723 9.64031 113.723 13.2811C113.723 16.9218 116.398 19.8447 119.881 19.8447Z" fill="#1C1B1B"/>
<path d="M60.6797 25.998L60.6797 0.564077L68.2508 0.564077V2.66648L68.3518 2.71776C70.2698 1.17941 72.6926 1.52588e-05 75.7715 1.52588e-05C78.5476 1.52588e-05 81.3741 1.02558 82.9388 3.48693C85.4626 1.28197 88.4405 1.52588e-05 91.7214 1.52588e-05C94.4974 1.52588e-05 96.7183 0.923023 98.2325 2.56392C99.7468 4.20482 100.453 6.35851 100.453 9.99925V25.998L92.7813 25.998V11.2812C92.7813 9.48647 92.529 8.56347 91.8728 7.79429C91.2166 7.02512 90.2071 6.71745 89.1472 6.71745C87.3301 6.71745 85.614 7.58918 84.3521 8.7173C84.4026 9.02497 84.4026 9.4352 84.4026 9.79414V25.998H76.7305V11.2812C76.7305 9.53775 76.5286 8.56347 75.822 7.79429C75.1153 7.02512 74.1563 6.71745 73.0459 6.71745C71.3298 6.71745 69.5632 7.64046 68.3518 8.7173V25.998H60.6797Z" fill="#1C1B1B"/>
<path d="M41.2518 26.5621C33.3274 26.5621 27.4219 20.7677 27.4219 13.2811C27.4219 5.79445 33.3274 1.52588e-05 41.2518 1.52588e-05C49.1763 1.52588e-05 55.0818 5.79445 55.0818 13.2811C55.0818 20.7677 49.1763 26.5621 41.2518 26.5621ZM41.2518 19.8447C44.7346 19.8447 47.4097 16.9218 47.4097 13.2811C47.4097 9.64031 44.7346 6.71745 41.2518 6.71745C37.7691 6.71745 35.094 9.64031 35.094 13.2811C35.094 16.9218 37.7691 19.8447 41.2518 19.8447Z" fill="#1C1B1B"/>
<path d="M7.83594 6.25407L21.827 6.25407V20.4683H7.83594L7.83594 6.25407Z" fill="#1C1B1B"/>
<path d="M21.8265 24.4484C19.7942 25.7905 17.0656 26.7227 14.2712 26.7227C5.83711 26.7227 0 21.1629 0 13.4204C0 5.36816 6.24935 0 14.3786 0C17.1222 0 19.8958 0.466899 21.8265 1.7057V8.52852C19.845 7.18648 17.3204 6.82281 14.8308 6.82281C10.4614 6.82281 7.83516 9.49008 7.83516 13.3613C7.83516 17.2842 10.6904 19.8999 15.1107 19.8999C17.6511 19.8999 20.2007 18.916 21.8265 17.6256V24.4484Z" fill="#1C1B1B"/>
<path d="M11.7871 8.48603L11.7871 18.3084C11.7871 19.1347 12.5786 19.8046 13.5549 19.8046C14.5313 19.8046 15.3228 19.1347 15.3228 18.3084L15.3228 8.48603C15.3228 7.65971 14.5313 6.98985 13.5549 6.98985C12.5786 6.98985 11.7871 7.65971 11.7871 8.48603Z" fill="#F2F2F2"/>
<path d="M7.07227 8.48603L7.07227 18.3084C7.07227 19.1347 7.86375 19.8046 8.8401 19.8046C9.81644 19.8046 10.6079 19.1347 10.6079 18.3084L10.6079 8.48603C10.6079 7.65972 9.81644 6.98985 8.8401 6.98985C7.86375 6.98985 7.07227 7.65972 7.07227 8.48603Z" fill="#F2F2F2"/>
<path d="M21.9051 11.6498L14.4137 11.6498C13.8724 11.6498 13.4336 12.4135 13.4336 13.3555C13.4336 14.2975 13.8724 15.0612 14.4137 15.0612L21.9051 15.0612V13.3285V11.6498Z" fill="#F2F2F2"/>
<path d="M1.664 53V46.44H0.4V45.128H1.664V43.288C1.664 41.544 2.496 40.6 4.096 40.6C4.56 40.6 5.056 40.696 5.344 40.824V42.088C5.056 41.976 4.672 41.896 4.32 41.896C3.424 41.896 3.104 42.424 3.104 43.352V45.128H5.152V46.44H3.104V53H1.664ZM10.255 53.176C7.871 53.176 6.095 51.384 6.095 49.064C6.095 46.744 7.871 44.952 10.255 44.952C12.639 44.952 14.415 46.744 14.415 49.064C14.415 51.384 12.639 53.176 10.255 53.176ZM10.255 51.864C11.823 51.864 12.975 50.648 12.975 49.064C12.975 47.48 11.823 46.264 10.255 46.264C8.687 46.264 7.535 47.48 7.535 49.064C7.535 50.648 8.687 51.864 10.255 51.864ZM16.4046 53V45.128H17.8446V46.28L17.8766 46.296C18.4206 45.528 19.2846 45.064 20.2126 45.064C20.3726 45.064 20.5486 45.08 20.7246 45.128V46.552C20.5326 46.504 20.3406 46.488 20.1646 46.488C19.0926 46.488 18.3406 47.032 17.8446 47.88V53H16.4046ZM26.5386 54.616C27.2106 55.08 28.1546 55.384 29.0986 55.384C30.6986 55.384 31.7066 54.472 31.7066 52.952V52.312L31.6746 52.296C31.0666 52.76 30.2666 53.016 29.4346 53.016C27.3066 53.016 25.6426 51.432 25.6426 49.08C25.6426 46.76 27.3066 44.952 29.7546 44.952C30.6506 44.952 31.3866 45.192 31.9946 45.512L33.1466 45.24V52.984C33.1466 55.288 31.6266 56.68 29.1626 56.68C28.1386 56.68 27.2106 56.424 26.5386 56.04V54.616ZM27.0986 49.016C27.0986 50.6 28.1066 51.752 29.7226 51.752C30.4746 51.752 31.2106 51.464 31.7066 51.048V46.744C31.2106 46.456 30.5066 46.232 29.8186 46.232C28.1066 46.232 27.0986 47.464 27.0986 49.016ZM37.4783 56.52H35.9103L38.0383 52.152L34.7583 45.128H36.3583L37.7343 48.104C38.1023 48.904 38.4863 49.752 38.8063 50.472H38.8383C39.1903 49.688 39.5423 48.904 39.9103 48.104L41.2863 45.128H42.8063L37.4783 56.52ZM44.4671 53V45.128H45.9071V46.056L45.9391 46.072C46.5951 45.448 47.5391 44.952 48.5951 44.952C49.5871 44.952 50.5471 45.384 51.0111 46.28C51.9071 45.432 52.8991 44.952 54.0031 44.952C54.8671 44.952 55.5711 45.24 56.0511 45.784C56.5311 46.328 56.7231 46.968 56.7231 48.072V53H55.2831V48.328C55.2831 47.592 55.1711 47.112 54.8831 46.776C54.5951 46.44 54.1151 46.296 53.6831 46.296C52.7871 46.296 51.8431 46.856 51.2991 47.496C51.3151 47.672 51.3151 47.88 51.3151 48.088V53H49.8751V48.328C49.8751 47.512 49.7791 47.128 49.4911 46.792C49.2031 46.456 48.7711 46.296 48.2911 46.296C47.3631 46.296 46.4671 46.824 45.9071 47.432V53H44.4671ZM66.7238 53.176C64.3398 53.176 62.5638 51.384 62.5638 49.064C62.5638 46.744 64.3398 44.952 66.7238 44.952C69.1078 44.952 70.8837 46.744 70.8837 49.064C70.8837 51.384 69.1078 53.176 66.7238 53.176ZM66.7238 51.864C68.2918 51.864 69.4438 50.648 69.4438 49.064C69.4438 47.48 68.2918 46.264 66.7238 46.264C65.1558 46.264 64.0038 47.48 64.0038 49.064C64.0038 50.648 65.1558 51.864 66.7238 51.864ZM74.3708 53L71.6348 45.128H73.2028L74.3708 48.632C74.6428 49.448 74.9148 50.28 75.1548 51.064H75.1868C75.4588 50.264 75.7628 49.416 76.0508 48.632L77.3468 45.128H78.3708L79.6667 48.632C79.9708 49.448 80.2587 50.264 80.5308 51.064H80.5628C80.8028 50.248 81.0588 49.464 81.3308 48.648L82.4988 45.128H84.0028L81.2668 53H79.8428L78.6108 49.624C78.3548 48.92 78.0668 48.104 77.8428 47.416H77.8108C77.5868 48.104 77.2988 48.92 77.0428 49.624L75.8108 53H74.3708ZM85.6859 53V45.128H87.1259V46.056L87.1579 46.072C87.8299 45.448 88.7899 44.952 89.9099 44.952C90.7579 44.952 91.4459 45.224 91.9579 45.768C92.4699 46.312 92.6619 47.032 92.6619 48.072V53H91.2219V48.232C91.2219 47.56 91.1259 47.08 90.8059 46.76C90.4859 46.44 90.0379 46.296 89.5419 46.296C88.6459 46.296 87.7179 46.776 87.1259 47.432V53H85.6859ZM101.683 52.44C100.963 52.904 99.8746 53.176 98.8826 53.176C96.3866 53.176 94.6106 51.592 94.6106 49.096C94.6106 46.584 96.3706 44.952 98.5146 44.952C100.451 44.952 102.115 46.296 102.115 48.776C102.115 49.016 102.099 49.336 102.083 49.512H96.0666C96.2586 51.032 97.4106 51.88 98.9786 51.88C100.003 51.88 100.931 51.512 101.683 50.968V52.44ZM96.0826 48.344H100.723C100.611 46.808 99.4906 46.248 98.4986 46.248C97.4106 46.248 96.3226 46.936 96.0826 48.344ZM104.17 53V45.128H105.61V46.28L105.642 46.296C106.186 45.528 107.05 45.064 107.978 45.064C108.138 45.064 108.314 45.08 108.49 45.128V46.552C108.298 46.504 108.106 46.488 107.93 46.488C106.858 46.488 106.106 47.032 105.61 47.88V53H104.17ZM112.765 53.176C111.757 53.176 110.573 52.968 109.725 52.456V50.968C110.653 51.592 111.853 51.88 112.845 51.88C113.917 51.88 114.621 51.56 114.621 50.808C114.621 50.36 114.381 50.072 113.693 49.896C113.005 49.72 111.661 49.608 110.845 49.256C110.029 48.904 109.645 48.264 109.645 47.384C109.645 45.8 110.989 44.952 112.797 44.952C113.789 44.952 114.893 45.192 115.613 45.576V46.984C114.733 46.488 113.661 46.248 112.781 46.248C111.789 46.248 111.085 46.552 111.085 47.256C111.085 47.736 111.389 48.008 112.141 48.168C112.893 48.328 114.077 48.44 114.861 48.776C115.645 49.112 116.061 49.72 116.061 50.696C116.061 52.376 114.541 53.176 112.765 53.176Z" fill="#1C1B1B"/>
</svg>
