<svg width="150" height="97" viewBox="0 0 150 97" fill="none" xmlns="http://www.w3.org/2000/svg">
<path d="M34.216 96.408C13.992 96.408 0.0400004 85.272 0.0400004 68.632C0.0400004 59.032 5.032 50.712 14.376 46.872V46.616C6.44 43.032 2.088 35.608 2.088 27.032C2.088 11.544 15.528 0.919998 34.216 0.919998C52.904 0.919998 66.344 11.544 66.344 27.032C66.344 35.608 61.992 43.032 54.056 46.616V46.872C63.4 50.712 68.392 59.032 68.392 68.632C68.392 85.272 54.44 96.408 34.216 96.408ZM34.216 40.344C41.256 40.344 46.76 35.608 46.76 28.824C46.76 22.168 41.384 17.56 34.216 17.56C27.048 17.56 21.672 22.168 21.672 28.824C21.672 35.608 27.176 40.344 34.216 40.344ZM34.216 79.768C42.664 79.768 48.552 74.52 48.552 67.224C48.552 59.8 42.536 54.552 34.216 54.552C25.896 54.552 19.88 59.8 19.88 67.224C19.88 74.52 25.768 79.768 34.216 79.768ZM115.567 96.408C96.495 96.408 81.519 84.248 81.519 64.28C81.519 54.296 85.103 45.72 92.783 33.944L113.391 2.328H135.151L110.191 39.064L110.319 39.192C113.135 37.784 116.847 36.888 120.815 36.888C136.559 36.888 149.615 48.792 149.615 65.56C149.615 83.48 135.151 96.408 115.567 96.408ZM115.439 80.024C123.759 80.024 129.903 74.392 129.903 65.944C129.903 57.624 124.143 51.992 115.567 51.992C107.247 51.992 101.103 57.496 101.103 65.816C101.103 73.752 106.735 80.024 115.439 80.024Z" fill="#D480FF"/>
</svg>
