<svg width="279" height="97" viewBox="0 0 279 97" fill="none" xmlns="http://www.w3.org/2000/svg">
<path d="M19.984 95V32.536L0.656 43.928V23.704L39.824 0.791992V95H19.984ZM129.501 95H65.117V94.744L91.741 58.264C100.701 45.976 105.437 38.936 105.437 31.384C105.437 22.936 99.549 18.328 90.973 18.328C82.909 18.328 74.845 22.296 68.061 28.952V10.648C73.821 5.272 83.293 0.919998 94.173 0.919998C112.349 0.919998 125.277 12.312 125.277 29.464C125.277 41.624 118.877 51.608 109.149 64.152L98.653 77.72L98.781 77.976H129.501V95ZM198.625 19.352H164.705L163.553 35.992H164.961C185.825 35.992 201.441 46.232 201.441 65.56C201.441 84.376 186.849 96.408 166.113 96.408C156.641 96.408 147.681 93.976 141.537 90.008V71.32C148.705 76.312 157.153 79.128 164.833 79.128C175.073 79.128 181.601 74.008 181.601 65.688C181.601 54.936 169.697 51.352 156.641 51.352C153.057 51.352 148.193 51.48 144.353 52.12L148.065 2.328H198.625V19.352ZM219.41 95L251.666 19.352H212.114V2.328H278.674V2.58399L239.89 95H219.41Z" fill="#D480FF"/>
</svg>
