<svg width="135" height="147" viewBox="0 0 135 147" fill="none" xmlns="http://www.w3.org/2000/svg">
<path d="M3.44706 127.004C0.517926 129.933 0.517607 134.682 3.44634 137.611C6.37508 140.54 11.1238 140.54 14.0529 137.612L3.44706 127.004ZM134.518 14.0565C134.518 9.9144 131.16 6.55631 127.018 6.55604L59.5182 6.55151C55.3761 6.55123 52.018 9.90887 52.0177 14.051C52.0174 18.1931 55.3751 21.5512 59.5172 21.5515L119.517 21.5555L119.513 81.5555C119.513 85.6977 122.871 89.0558 127.013 89.056C131.155 89.0563 134.513 85.6987 134.513 81.5565L134.518 14.0565ZM14.0529 137.612L132.321 19.3597L121.715 8.75238L3.44706 127.004L14.0529 137.612Z" fill="#F2F2F2"/>
<path d="M8.33984 132.769L85.4344 55.6743" stroke="#79ECEC" stroke-width="15" stroke-linecap="round"/>
</svg>
