<svg width="148" height="135" viewBox="0 0 148 135" fill="none" xmlns="http://www.w3.org/2000/svg">
<path d="M20.7646 3.10526C17.8359 0.176131 13.0871 0.175812 10.158 3.10455C7.22887 6.03328 7.22855 10.782 10.1573 13.7111L20.7646 3.10526ZM133.712 134.176C137.854 134.176 141.212 130.819 141.213 126.676L141.217 59.1764C141.218 55.0343 137.86 51.6762 133.718 51.6759C129.576 51.6756 126.218 55.0333 126.217 59.1754L126.213 119.175L66.2132 119.171C62.0711 119.171 58.713 122.529 58.7127 126.671C58.7125 130.813 62.0701 134.171 66.2122 134.171L133.712 134.176ZM10.1573 13.7111L128.409 131.979L139.016 121.373L20.7646 3.10526L10.1573 13.7111Z" fill="#F2F2F2"/>
<path d="M15 8L92.0945 85.0945" stroke="#6CC2FF" stroke-width="15" stroke-linecap="round"/>
</svg>
