<svg width="207" height="207" viewBox="0 0 207 207" fill="none" xmlns="http://www.w3.org/2000/svg">
<path fill-rule="evenodd" clip-rule="evenodd" d="M103.5 181.909C60.1958 181.909 25.0909 146.804 25.0909 103.5C25.0909 60.1959 60.1958 25.0909 103.5 25.0909C146.804 25.0909 181.909 60.1959 181.909 103.5C181.909 146.804 146.804 181.909 103.5 181.909ZM103.5 207C46.3385 207 0 160.661 0 103.5C0 46.3385 46.3385 0 103.5 0C160.661 0 207 46.3385 207 103.5C207 160.661 160.661 207 103.5 207Z" fill="#F2F2F2"/>
<path fill-rule="evenodd" clip-rule="evenodd" d="M180.754 116.986C181.513 112.605 181.909 108.099 181.909 103.5C181.909 60.1959 146.804 25.0909 103.5 25.0909V0C160.661 0 207 46.3385 207 103.5C207 110.257 206.352 116.863 205.116 123.259L180.754 116.986Z" fill="#6CC2FF"/>
<mask id="path-3-outside-1_2054_1525" maskUnits="userSpaceOnUse" x="61.6172" y="89.6018" width="86" height="34" fill="black">
<rect fill="white" x="61.6172" y="89.6018" width="86" height="34"/>
<path d="M76.6633 121.602V114.562H63.0633V113.322L76.6633 92.6418H82.6633V109.682H87.9433V114.562H82.6633V121.602H76.6633ZM76.6633 105.282C76.6633 103.762 76.7033 102.042 76.7433 100.522H76.6633C75.8633 101.882 74.8233 103.522 73.8633 105.002L70.8633 109.602L70.9033 109.682H76.6633V105.282ZM96.7542 121.602V102.082L90.7142 105.642V99.3218L102.954 92.1618V121.602H96.7542ZM118.538 106.962C113.938 106.962 110.818 103.762 110.818 99.6018C110.818 95.4418 113.938 92.2418 118.538 92.2418C123.138 92.2418 126.258 95.4418 126.258 99.6018C126.258 103.762 123.138 106.962 118.538 106.962ZM118.538 102.722C120.218 102.722 121.418 101.402 121.418 99.6018C121.418 97.8018 120.218 96.4818 118.538 96.4818C116.858 96.4818 115.658 97.8018 115.658 99.6018C115.658 101.402 116.858 102.722 118.538 102.722ZM115.338 121.602L135.658 92.6418H141.418L121.098 121.602H115.338ZM138.218 107.282C142.818 107.282 145.938 110.482 145.938 114.642C145.938 118.802 142.818 122.002 138.218 122.002C133.618 122.002 130.498 118.802 130.498 114.642C130.498 110.482 133.618 107.282 138.218 107.282ZM138.218 111.522C136.538 111.522 135.338 112.842 135.338 114.642C135.338 116.442 136.538 117.762 138.218 117.762C139.898 117.762 141.098 116.442 141.098 114.642C141.098 112.842 139.898 111.522 138.218 111.522Z"/>
</mask>
<path d="M76.6633 121.602V114.562H63.0633V113.322L76.6633 92.6418H82.6633V109.682H87.9433V114.562H82.6633V121.602H76.6633ZM76.6633 105.282C76.6633 103.762 76.7033 102.042 76.7433 100.522H76.6633C75.8633 101.882 74.8233 103.522 73.8633 105.002L70.8633 109.602L70.9033 109.682H76.6633V105.282ZM96.7542 121.602V102.082L90.7142 105.642V99.3218L102.954 92.1618V121.602H96.7542ZM118.538 106.962C113.938 106.962 110.818 103.762 110.818 99.6018C110.818 95.4418 113.938 92.2418 118.538 92.2418C123.138 92.2418 126.258 95.4418 126.258 99.6018C126.258 103.762 123.138 106.962 118.538 106.962ZM118.538 102.722C120.218 102.722 121.418 101.402 121.418 99.6018C121.418 97.8018 120.218 96.4818 118.538 96.4818C116.858 96.4818 115.658 97.8018 115.658 99.6018C115.658 101.402 116.858 102.722 118.538 102.722ZM115.338 121.602L135.658 92.6418H141.418L121.098 121.602H115.338ZM138.218 107.282C142.818 107.282 145.938 110.482 145.938 114.642C145.938 118.802 142.818 122.002 138.218 122.002C133.618 122.002 130.498 118.802 130.498 114.642C130.498 110.482 133.618 107.282 138.218 107.282ZM138.218 111.522C136.538 111.522 135.338 112.842 135.338 114.642C135.338 116.442 136.538 117.762 138.218 117.762C139.898 117.762 141.098 116.442 141.098 114.642C141.098 112.842 139.898 111.522 138.218 111.522Z" fill="#6CC2FF"/>
<path d="M76.6633 121.602H75.6633V122.602H76.6633V121.602ZM76.6633 114.562H77.6633V113.562H76.6633V114.562ZM63.0633 114.562H62.0633V115.562H63.0633V114.562ZM63.0633 113.322L62.2277 112.772L62.0633 113.022V113.322H63.0633ZM76.6633 92.6418V91.6418H76.124L75.8277 92.0923L76.6633 92.6418ZM82.6633 92.6418H83.6633V91.6418H82.6633V92.6418ZM82.6633 109.682H81.6633V110.682H82.6633V109.682ZM87.9433 109.682H88.9433V108.682H87.9433V109.682ZM87.9433 114.562V115.562H88.9433V114.562H87.9433ZM82.6633 114.562V113.562H81.6633V114.562H82.6633ZM82.6633 121.602V122.602H83.6633V121.602H82.6633ZM76.7433 100.522L77.7429 100.548L77.7699 99.5218H76.7433V100.522ZM76.6633 100.522V99.5218H76.0913L75.8013 100.015L76.6633 100.522ZM73.8633 105.002L74.7009 105.548L74.7022 105.546L73.8633 105.002ZM70.8633 109.602L70.0256 109.056L69.7123 109.536L69.9688 110.049L70.8633 109.602ZM70.9033 109.682L70.0088 110.129L70.2852 110.682H70.9033V109.682ZM76.6633 109.682V110.682H77.6633V109.682H76.6633ZM77.6633 121.602V114.562H75.6633V121.602H77.6633ZM76.6633 113.562H63.0633V115.562H76.6633V113.562ZM64.0633 114.562V113.322H62.0633V114.562H64.0633ZM63.8988 113.871L77.4988 93.1913L75.8277 92.0923L62.2277 112.772L63.8988 113.871ZM76.6633 93.6418H82.6633V91.6418H76.6633V93.6418ZM81.6633 92.6418V109.682H83.6633V92.6418H81.6633ZM82.6633 110.682H87.9433V108.682H82.6633V110.682ZM86.9433 109.682V114.562H88.9433V109.682H86.9433ZM87.9433 113.562H82.6633V115.562H87.9433V113.562ZM81.6633 114.562V121.602H83.6633V114.562H81.6633ZM82.6633 120.602H76.6633V122.602H82.6633V120.602ZM77.6633 105.282C77.6633 103.776 77.7029 102.068 77.7429 100.548L75.7436 100.496C75.7036 102.016 75.6633 103.747 75.6633 105.282H77.6633ZM76.7433 99.5218H76.6633V101.522H76.7433V99.5218ZM75.8013 100.015C75.0126 101.356 73.9821 102.981 73.0243 104.458L74.7022 105.546C75.6645 104.063 76.7139 102.408 77.5252 101.029L75.8013 100.015ZM73.0256 104.456L70.0256 109.056L71.7009 110.148L74.7009 105.548L73.0256 104.456ZM69.9688 110.049L70.0088 110.129L71.7977 109.235L71.7577 109.155L69.9688 110.049ZM70.9033 110.682H76.6633V108.682H70.9033V110.682ZM77.6633 109.682V105.282H75.6633V109.682H77.6633ZM96.7542 121.602H95.7542V122.602H96.7542V121.602ZM96.7542 102.082H97.7542V100.332L96.2464 101.22L96.7542 102.082ZM90.7142 105.642H89.7142V107.392L91.222 106.503L90.7142 105.642ZM90.7142 99.3218L90.2093 98.4586L89.7142 98.7482V99.3218H90.7142ZM102.954 92.1618H103.954V90.4183L102.449 91.2986L102.954 92.1618ZM102.954 121.602V122.602H103.954V121.602H102.954ZM97.7542 121.602V102.082H95.7542V121.602H97.7542ZM96.2464 101.22L90.2064 104.78L91.222 106.503L97.262 102.943L96.2464 101.22ZM91.7142 105.642V99.3218H89.7142V105.642H91.7142ZM91.2191 100.185L103.459 93.025L102.449 91.2986L90.2093 98.4586L91.2191 100.185ZM101.954 92.1618V121.602H103.954V92.1618H101.954ZM102.954 120.602H96.7542V122.602H102.954V120.602ZM115.338 121.602L114.52 121.027L113.415 122.602H115.338V121.602ZM135.658 92.6418V91.6418H135.138L134.84 92.0674L135.658 92.6418ZM141.418 92.6418L142.237 93.2162L143.342 91.6418H141.418V92.6418ZM121.098 121.602V122.602H121.618L121.917 122.176L121.098 121.602ZM118.538 105.962C114.466 105.962 111.818 103.185 111.818 99.6018H109.818C109.818 104.339 113.411 107.962 118.538 107.962V105.962ZM111.818 99.6018C111.818 96.0186 114.466 93.2418 118.538 93.2418V91.2418C113.411 91.2418 109.818 94.865 109.818 99.6018H111.818ZM118.538 93.2418C122.611 93.2418 125.258 96.0186 125.258 99.6018H127.258C127.258 94.865 123.666 91.2418 118.538 91.2418V93.2418ZM125.258 99.6018C125.258 103.185 122.611 105.962 118.538 105.962V107.962C123.666 107.962 127.258 104.339 127.258 99.6018H125.258ZM118.538 103.722C120.848 103.722 122.418 101.873 122.418 99.6018H120.418C120.418 100.931 119.588 101.722 118.538 101.722V103.722ZM122.418 99.6018C122.418 97.3308 120.848 95.4818 118.538 95.4818V97.4818C119.588 97.4818 120.418 98.2728 120.418 99.6018H122.418ZM118.538 95.4818C116.228 95.4818 114.658 97.3308 114.658 99.6018H116.658C116.658 98.2728 117.488 97.4818 118.538 97.4818V95.4818ZM114.658 99.6018C114.658 101.873 116.228 103.722 118.538 103.722V101.722C117.488 101.722 116.658 100.931 116.658 99.6018H114.658ZM116.157 122.176L136.477 93.2162L134.84 92.0674L114.52 121.027L116.157 122.176ZM135.658 93.6418H141.418V91.6418H135.658V93.6418ZM140.6 92.0674L120.28 121.027L121.917 122.176L142.237 93.2162L140.6 92.0674ZM121.098 120.602H115.338V122.602H121.098V120.602ZM138.218 108.282C142.291 108.282 144.938 111.059 144.938 114.642H146.938C146.938 109.905 143.346 106.282 138.218 106.282V108.282ZM144.938 114.642C144.938 118.225 142.291 121.002 138.218 121.002V123.002C143.346 123.002 146.938 119.379 146.938 114.642H144.938ZM138.218 121.002C134.146 121.002 131.498 118.225 131.498 114.642H129.498C129.498 119.379 133.091 123.002 138.218 123.002V121.002ZM131.498 114.642C131.498 111.059 134.146 108.282 138.218 108.282V106.282C133.091 106.282 129.498 109.905 129.498 114.642H131.498ZM138.218 110.522C135.908 110.522 134.338 112.371 134.338 114.642H136.338C136.338 113.313 137.168 112.522 138.218 112.522V110.522ZM134.338 114.642C134.338 116.913 135.908 118.762 138.218 118.762V116.762C137.168 116.762 136.338 115.971 136.338 114.642H134.338ZM138.218 118.762C140.528 118.762 142.098 116.913 142.098 114.642H140.098C140.098 115.971 139.268 116.762 138.218 116.762V118.762ZM142.098 114.642C142.098 112.371 140.528 110.522 138.218 110.522V112.522C139.268 112.522 140.098 113.313 140.098 114.642H142.098Z" fill="#6CC2FF" mask="url(#path-3-outside-1_2054_1525)"/>
</svg>
