<svg width="135" height="147" viewBox="0 0 135 147" fill="none" xmlns="http://www.w3.org/2000/svg">
<path d="M3.4451 127.004C0.515973 129.933 0.515654 134.682 3.44439 137.611C6.37313 140.54 11.1219 140.54 14.051 137.612L3.4451 127.004ZM134.516 14.0568C134.516 9.91465 131.158 6.55656 127.016 6.55629L59.5162 6.55175C55.3741 6.55147 52.016 9.90912 52.0157 14.0513C52.0155 18.1934 55.3731 21.5515 59.5152 21.5518L119.515 21.5558L119.511 81.5558C119.511 85.6979 122.869 89.056 127.011 89.0563C131.153 89.0566 134.511 85.6989 134.511 81.5568L134.516 14.0568ZM14.051 137.612L132.319 19.3599L121.713 8.75263L3.4451 127.004L14.051 137.612Z" fill="#F2F2F2"/>
<path d="M8.33984 132.769L85.4344 55.6745" stroke="#80F075" stroke-width="15" stroke-linecap="round"/>
</svg>
