<svg width="310" height="96" viewBox="0 0 310 96" fill="none" xmlns="http://www.w3.org/2000/svg">
<path d="M43.943 94V71.472H0.423V67.504L43.943 1.328H63.143V55.856H80.039V71.472H63.143V94H43.943ZM43.943 41.776C43.943 36.912 44.071 31.408 44.199 26.544H43.943C41.383 30.896 38.055 36.144 34.983 40.88L25.383 55.6L25.511 55.856H43.943V41.776ZM146.25 18.352H112.33L111.178 34.992H112.586C133.45 34.992 149.066 45.232 149.066 64.56C149.066 83.376 134.474 95.408 113.738 95.408C104.266 95.408 95.306 92.976 89.162 89.008V70.32C96.33 75.312 104.778 78.128 112.458 78.128C122.698 78.128 129.226 73.008 129.226 64.688C129.226 53.936 117.322 50.352 104.266 50.352C100.682 50.352 95.818 50.48 91.978 51.12L95.69 1.328H146.25V18.352ZM195.067 95.28C169.467 95.28 161.147 75.696 161.147 48.816V46.512C161.147 19.632 169.467 0.0479965 195.067 0.0479965C220.667 0.0479965 228.987 19.632 228.987 46.512V48.816C228.987 75.696 220.667 95.28 195.067 95.28ZM195.067 78C207.227 78 209.147 65.328 209.147 48.432V46.896C209.147 30 207.227 17.328 195.067 17.328C182.907 17.328 180.987 30 180.987 46.896V48.432C180.987 65.328 182.907 78 195.067 78ZM275.442 95.28C249.842 95.28 241.522 75.696 241.522 48.816V46.512C241.522 19.632 249.842 0.0479965 275.442 0.0479965C301.042 0.0479965 309.362 19.632 309.362 46.512V48.816C309.362 75.696 301.042 95.28 275.442 95.28ZM275.442 78C287.602 78 289.522 65.328 289.522 48.432V46.896C289.522 30 287.602 17.328 275.442 17.328C263.282 17.328 261.362 30 261.362 46.896V48.432C261.362 65.328 263.282 78 275.442 78Z" fill="#6CC2FF"/>
</svg>
