<svg width="141" height="95" viewBox="0 0 141 95" fill="none" xmlns="http://www.w3.org/2000/svg">
<path d="M57.625 17.352H23.705L22.553 33.992H23.961C44.825 33.992 60.441 44.232 60.441 63.56C60.441 82.376 45.849 94.408 25.113 94.408C15.641 94.408 6.681 91.976 0.537 88.008V69.32C7.705 74.312 16.153 77.128 23.833 77.128C34.073 77.128 40.601 72.008 40.601 63.688C40.601 52.936 28.697 49.352 15.641 49.352C12.057 49.352 7.193 49.48 3.353 50.12L7.065 0.327995H57.625V17.352ZM106.442 94.408C87.37 94.408 72.394 82.248 72.394 62.28C72.394 52.296 75.978 43.72 83.658 31.944L104.266 0.327995H126.026L101.066 37.064L101.194 37.192C104.01 35.784 107.722 34.888 111.69 34.888C127.434 34.888 140.49 46.792 140.49 63.56C140.49 81.48 126.026 94.408 106.442 94.408ZM106.314 78.024C114.634 78.024 120.778 72.392 120.778 63.944C120.778 55.624 115.018 49.992 106.442 49.992C98.122 49.992 91.978 55.496 91.978 63.816C91.978 71.752 97.61 78.024 106.314 78.024Z" fill="#FFB952"/>
</svg>
