<svg width="207" height="207" viewBox="0 0 207 207" fill="none" xmlns="http://www.w3.org/2000/svg">
<path fill-rule="evenodd" clip-rule="evenodd" d="M103.5 181.909C60.1958 181.909 25.0909 146.804 25.0909 103.5C25.0909 60.1959 60.1958 25.0909 103.5 25.0909C146.804 25.0909 181.909 60.1959 181.909 103.5C181.909 146.804 146.804 181.909 103.5 181.909ZM103.5 207C46.3385 207 0 160.661 0 103.5C0 46.3385 46.3385 0 103.5 0C160.661 0 207 46.3385 207 103.5C207 160.661 160.661 207 103.5 207Z" fill="#F2F2F2"/>
<path fill-rule="evenodd" clip-rule="evenodd" d="M26.2464 116.986C25.4868 112.605 25.0909 108.099 25.0909 103.5C25.0909 60.1959 60.1958 25.0909 103.5 25.0909V0C46.3385 0 0 46.3385 0 103.5C0 110.257 0.647537 116.863 1.88394 123.259L26.2464 116.986Z" fill="#80F075"/>
<path d="M84.9646 121.602H64.8446V121.522L73.1646 110.122C75.9646 106.282 77.4446 104.082 77.4446 101.722C77.4446 99.0818 75.6046 97.6418 72.9246 97.6418C70.4046 97.6418 67.8846 98.8818 65.7646 100.962V95.2418C67.5646 93.5618 70.5246 92.2018 73.9246 92.2018C79.6046 92.2018 83.6446 95.7618 83.6446 101.122C83.6446 104.922 81.6446 108.042 78.6046 111.962L75.3246 116.202L75.3646 116.282H84.9646V121.602ZM90.3658 121.602L100.446 97.9618H88.0858V92.6418H108.886V92.7218L96.7658 121.602H90.3658ZM118.54 106.962C113.94 106.962 110.82 103.762 110.82 99.6018C110.82 95.4418 113.94 92.2418 118.54 92.2418C123.14 92.2418 126.26 95.4418 126.26 99.6018C126.26 103.762 123.14 106.962 118.54 106.962ZM118.54 102.722C120.22 102.722 121.42 101.402 121.42 99.6018C121.42 97.8018 120.22 96.4818 118.54 96.4818C116.86 96.4818 115.66 97.8018 115.66 99.6018C115.66 101.402 116.86 102.722 118.54 102.722ZM115.34 121.602L135.66 92.6418H141.42L121.1 121.602H115.34ZM138.22 107.282C142.82 107.282 145.94 110.482 145.94 114.642C145.94 118.802 142.82 122.002 138.22 122.002C133.62 122.002 130.5 118.802 130.5 114.642C130.5 110.482 133.62 107.282 138.22 107.282ZM138.22 111.522C136.54 111.522 135.34 112.842 135.34 114.642C135.34 116.442 136.54 117.762 138.22 117.762C139.9 117.762 141.1 116.442 141.1 114.642C141.1 112.842 139.9 111.522 138.22 111.522Z" fill="#80F075"/>
</svg>
