<svg width="349" height="160" viewBox="0 0 349 160" fill="none" xmlns="http://www.w3.org/2000/svg">
<path d="M38.608 62.536C41.4453 65.0693 44.8907 66.336 48.944 66.336C52.9973 66.336 56.4427 65.0693 59.28 62.536C62.1173 60.0027 63.536 56.8613 63.536 53.112C63.536 49.3627 62.1173 46.272 59.28 43.84C56.544 41.3067 53.0987 40.04 48.944 40.04C44.7893 40.04 41.2933 41.3067 38.456 43.84C35.72 46.272 34.352 49.3627 34.352 53.112C34.352 56.8613 35.7707 60.0027 38.608 62.536ZM36.936 109.504C40.1787 112.341 44.1813 113.76 48.944 113.76C53.7067 113.76 57.6587 112.341 60.8 109.504C64.0427 106.667 65.664 103.069 65.664 98.712C65.664 94.3547 64.0427 90.7067 60.8 87.768C57.5573 84.8293 53.6053 83.36 48.944 83.36C44.2827 83.36 40.3307 84.8293 37.088 87.768C33.8453 90.7067 32.224 94.3547 32.224 98.712C32.224 103.069 33.7947 106.667 36.936 109.504ZM78.736 124.4C70.9333 130.581 61.0027 133.672 48.944 133.672C36.8853 133.672 26.9547 130.581 19.152 124.4C11.3493 118.219 7.448 110.213 7.448 100.384C7.448 94.4053 9.06933 89.0347 12.312 84.272C15.5547 79.5093 20.1147 76.0133 25.992 73.784V73.48C21.2293 71.656 17.5307 68.7173 14.896 64.664C12.2613 60.6107 10.944 56.0507 10.944 50.984C10.944 42.168 14.592 34.872 21.888 29.096C29.184 23.2187 38.2027 20.28 48.944 20.28C59.6853 20.28 68.704 23.2187 76 29.096C83.296 34.872 86.944 42.168 86.944 50.984C86.944 56.0507 85.6267 60.6107 82.992 64.664C80.3573 68.7173 76.6587 71.656 71.896 73.48V73.784C77.7733 76.0133 82.3333 79.5093 85.576 84.272C88.8187 89.0347 90.44 94.4053 90.44 100.384C90.44 110.213 86.5387 118.219 78.736 124.4ZM175.948 118.776C168.652 128.707 158.519 133.672 145.548 133.672C132.578 133.672 122.444 128.707 115.148 118.776C108.46 109.555 105.116 95.6213 105.116 76.976C105.116 58.3307 108.46 44.3973 115.148 35.176C122.444 25.2453 132.578 20.28 145.548 20.28C158.519 20.28 168.652 25.2453 175.948 35.176C182.636 44.3973 185.98 58.3307 185.98 76.976C185.98 95.6213 182.636 109.555 175.948 118.776ZM134.452 106.16C137.29 110.112 140.988 112.088 145.548 112.088C150.108 112.088 153.807 110.112 156.644 106.16C160.09 101.296 161.812 91.5173 161.812 76.824C161.812 62.3333 160.09 52.656 156.644 47.792C153.908 43.84 150.21 41.864 145.548 41.864C140.887 41.864 137.188 43.84 134.452 47.792C131.007 52.7573 129.284 62.536 129.284 77.128C129.284 91.6187 131.007 101.296 134.452 106.16ZM247.074 69.224C242.108 74.4933 235.471 77.128 227.162 77.128C218.852 77.128 212.215 74.4933 207.25 69.224C202.284 63.8533 199.802 57.0133 199.802 48.704C199.802 40.3947 202.284 33.6053 207.25 28.336C212.215 22.9653 218.852 20.28 227.162 20.28C235.471 20.28 242.108 22.9653 247.074 28.336C252.039 33.6053 254.522 40.3947 254.522 48.704C254.522 57.0133 252.039 63.8533 247.074 69.224ZM220.322 132L292.218 21.952H307.722L235.826 132H220.322ZM218.65 58.888C220.879 61.624 223.716 62.992 227.162 62.992C230.607 62.992 233.394 61.624 235.522 58.888C237.751 56.152 238.866 52.7573 238.866 48.704C238.866 44.6507 237.751 41.256 235.522 38.52C233.394 35.784 230.607 34.416 227.162 34.416C223.716 34.416 220.879 35.784 218.65 38.52C216.522 41.256 215.458 44.6507 215.458 48.704C215.458 52.7573 216.522 56.152 218.65 58.888ZM280.97 125.768C276.004 120.397 273.522 113.557 273.522 105.248C273.522 96.9387 276.004 90.1493 280.97 84.88C285.935 79.5093 292.572 76.824 300.882 76.824C309.191 76.824 315.828 79.5093 320.794 84.88C325.759 90.1493 328.242 96.9387 328.242 105.248C328.242 113.557 325.759 120.397 320.794 125.768C315.828 131.037 309.191 133.672 300.882 133.672C292.572 133.672 285.935 131.037 280.97 125.768ZM292.37 95.064C290.242 97.8 289.178 101.195 289.178 105.248C289.178 109.301 290.242 112.696 292.37 115.432C294.599 118.168 297.436 119.536 300.882 119.536C304.327 119.536 307.114 118.168 309.242 115.432C311.471 112.696 312.586 109.301 312.586 105.248C312.586 101.195 311.471 97.8 309.242 95.064C307.114 92.328 304.327 90.96 300.882 90.96C297.436 90.96 294.599 92.328 292.37 95.064Z" fill="#F2F2F2"/>
<mask id="mask0_2054_1541" style="mask-type:alpha" maskUnits="userSpaceOnUse" x="7" y="20" width="322" height="114">
<path d="M38.608 62.536C41.4453 65.0693 44.8907 66.336 48.944 66.336C52.9973 66.336 56.4427 65.0693 59.28 62.536C62.1173 60.0027 63.536 56.8613 63.536 53.112C63.536 49.3627 62.1173 46.272 59.28 43.84C56.544 41.3067 53.0987 40.04 48.944 40.04C44.7893 40.04 41.2933 41.3067 38.456 43.84C35.72 46.272 34.352 49.3627 34.352 53.112C34.352 56.8613 35.7707 60.0027 38.608 62.536ZM36.936 109.504C40.1787 112.341 44.1813 113.76 48.944 113.76C53.7067 113.76 57.6587 112.341 60.8 109.504C64.0427 106.667 65.664 103.069 65.664 98.712C65.664 94.3547 64.0427 90.7067 60.8 87.768C57.5573 84.8293 53.6053 83.36 48.944 83.36C44.2827 83.36 40.3307 84.8293 37.088 87.768C33.8453 90.7067 32.224 94.3547 32.224 98.712C32.224 103.069 33.7947 106.667 36.936 109.504ZM78.736 124.4C70.9333 130.581 61.0027 133.672 48.944 133.672C36.8853 133.672 26.9547 130.581 19.152 124.4C11.3493 118.219 7.448 110.213 7.448 100.384C7.448 94.4053 9.06933 89.0347 12.312 84.272C15.5547 79.5093 20.1147 76.0133 25.992 73.784V73.48C21.2293 71.656 17.5307 68.7173 14.896 64.664C12.2613 60.6107 10.944 56.0507 10.944 50.984C10.944 42.168 14.592 34.872 21.888 29.096C29.184 23.2187 38.2027 20.28 48.944 20.28C59.6853 20.28 68.704 23.2187 76 29.096C83.296 34.872 86.944 42.168 86.944 50.984C86.944 56.0507 85.6267 60.6107 82.992 64.664C80.3573 68.7173 76.6587 71.656 71.896 73.48V73.784C77.7733 76.0133 82.3333 79.5093 85.576 84.272C88.8187 89.0347 90.44 94.4053 90.44 100.384C90.44 110.213 86.5387 118.219 78.736 124.4ZM175.948 118.776C168.652 128.707 158.519 133.672 145.548 133.672C132.578 133.672 122.444 128.707 115.148 118.776C108.46 109.555 105.116 95.6213 105.116 76.976C105.116 58.3307 108.46 44.3973 115.148 35.176C122.444 25.2453 132.578 20.28 145.548 20.28C158.519 20.28 168.652 25.2453 175.948 35.176C182.636 44.3973 185.98 58.3307 185.98 76.976C185.98 95.6213 182.636 109.555 175.948 118.776ZM134.452 106.16C137.29 110.112 140.988 112.088 145.548 112.088C150.108 112.088 153.807 110.112 156.644 106.16C160.09 101.296 161.812 91.5173 161.812 76.824C161.812 62.3333 160.09 52.656 156.644 47.792C153.908 43.84 150.21 41.864 145.548 41.864C140.887 41.864 137.188 43.84 134.452 47.792C131.007 52.7573 129.284 62.536 129.284 77.128C129.284 91.6187 131.007 101.296 134.452 106.16ZM247.074 69.224C242.108 74.4933 235.471 77.128 227.162 77.128C218.852 77.128 212.215 74.4933 207.25 69.224C202.284 63.8533 199.802 57.0133 199.802 48.704C199.802 40.3947 202.284 33.6053 207.25 28.336C212.215 22.9653 218.852 20.28 227.162 20.28C235.471 20.28 242.108 22.9653 247.074 28.336C252.039 33.6053 254.522 40.3947 254.522 48.704C254.522 57.0133 252.039 63.8533 247.074 69.224ZM220.322 132L292.218 21.952H307.722L235.826 132H220.322ZM218.65 58.888C220.879 61.624 223.716 62.992 227.162 62.992C230.607 62.992 233.394 61.624 235.522 58.888C237.751 56.152 238.866 52.7573 238.866 48.704C238.866 44.6507 237.751 41.256 235.522 38.52C233.394 35.784 230.607 34.416 227.162 34.416C223.716 34.416 220.879 35.784 218.65 38.52C216.522 41.256 215.458 44.6507 215.458 48.704C215.458 52.7573 216.522 56.152 218.65 58.888ZM280.97 125.768C276.004 120.397 273.522 113.557 273.522 105.248C273.522 96.9387 276.004 90.1493 280.97 84.88C285.935 79.5093 292.572 76.824 300.882 76.824C309.191 76.824 315.828 79.5093 320.794 84.88C325.759 90.1493 328.242 96.9387 328.242 105.248C328.242 113.557 325.759 120.397 320.794 125.768C315.828 131.037 309.191 133.672 300.882 133.672C292.572 133.672 285.935 131.037 280.97 125.768ZM292.37 95.064C290.242 97.8 289.178 101.195 289.178 105.248C289.178 109.301 290.242 112.696 292.37 115.432C294.599 118.168 297.436 119.536 300.882 119.536C304.327 119.536 307.114 118.168 309.242 115.432C311.471 112.696 312.586 109.301 312.586 105.248C312.586 101.195 311.471 97.8 309.242 95.064C307.114 92.328 304.327 90.96 300.882 90.96C297.436 90.96 294.599 92.328 292.37 95.064Z" fill="white"/>
</mask>
<g mask="url(#mask0_2054_1541)">
<rect y="-339.802" width="257.6" height="811.089" fill="#FFB952"/>
</g>
</svg>
