<svg width="166" height="38" viewBox="0 0 166 38" fill="none" xmlns="http://www.w3.org/2000/svg">
<path d="M139.941 37.9425V0.630678L147.496 0.630678V2.14191L147.598 2.19402C149.271 0.891236 151.502 0.0574493 153.986 0.0574493C160.324 0.0574493 165.75 5.2686 165.75 13.1896C165.75 21.3711 159.969 27.0512 152.617 27.0512C150.691 27.0512 149.068 26.6343 147.75 26.009L147.648 26.0611V37.9425H139.941ZM147.648 19.5472C148.662 20.1204 150.133 20.5894 151.603 20.5894C155.761 20.5894 157.992 17.5148 157.992 13.6586C157.992 9.80231 155.761 6.72773 151.907 6.72773C150.184 6.72773 148.662 7.40517 147.648 8.23896V19.5472Z" fill="#1C1B1B"/>
<path d="M120.426 27.0512C112.466 27.0512 106.533 21.1626 106.533 13.5543C106.533 5.94605 112.466 0.0574493 120.426 0.0574493C128.386 0.0574493 134.319 5.94605 134.319 13.5543C134.319 21.1626 128.386 27.0512 120.426 27.0512ZM120.426 20.2246C123.925 20.2246 126.612 17.2543 126.612 13.5543C126.612 9.85442 123.925 6.88406 120.426 6.88406C116.927 6.88406 114.24 9.85442 114.24 13.5543C114.24 17.2543 116.927 20.2246 120.426 20.2246Z" fill="#1C1B1B"/>
<path d="M60.9551 26.478L60.9551 0.630678L68.5606 0.630678V2.76725L68.662 2.81936C70.5888 1.25602 73.0225 0.0574493 76.1155 0.0574493C78.9042 0.0574493 81.7436 1.09968 83.3154 3.60104C85.8505 1.36024 88.8421 0.0574493 92.1378 0.0574493C94.9265 0.0574493 97.1574 0.995458 98.6785 2.66303C100.2 4.3306 100.91 6.51928 100.91 10.2192V26.478L93.2026 26.478V11.522C93.2026 9.69808 92.949 8.76008 92.2899 7.9784C91.6308 7.19673 90.6167 6.88406 89.5519 6.88406C87.7266 6.88406 86.0027 7.76995 84.7351 8.91641C84.7858 9.22908 84.7858 9.64597 84.7858 10.0108V26.478H77.0788V11.522C77.0788 9.75019 76.876 8.76008 76.1662 7.9784C75.4563 7.19673 74.4929 6.88406 73.3775 6.88406C71.6535 6.88406 69.8789 7.82207 68.662 8.91641V26.478H60.9551Z" fill="#1C1B1B"/>
<path d="M41.4397 27.0512C33.4792 27.0512 27.5469 21.1626 27.5469 13.5543C27.5469 5.94605 33.4792 0.0574493 41.4397 0.0574493C49.4001 0.0574493 55.3324 5.94605 55.3324 13.5543C55.3324 21.1626 49.4001 27.0512 41.4397 27.0512ZM41.4397 20.2246C44.9382 20.2246 47.6255 17.2543 47.6255 13.5543C47.6255 9.85442 44.9382 6.88406 41.4397 6.88406C37.9411 6.88406 35.2538 9.85442 35.2538 13.5543C35.2538 17.2543 37.9411 20.2246 41.4397 20.2246Z" fill="#1C1B1B"/>
<path d="M7.87109 6.41315L21.9257 6.41315V20.8583H7.87109L7.87109 6.41315Z" fill="#1C1B1B"/>
<path d="M21.9257 24.9032C19.8841 26.267 17.1431 27.2144 14.336 27.2144C5.86363 27.2144 0 21.5643 0 13.6959C0 5.51284 6.27774 0.0574341 14.4439 0.0574341C17.2 0.0574341 19.9862 0.531921 21.9257 1.79086V8.72456C19.9352 7.3607 17.3991 6.99113 14.8982 6.99113C10.5089 6.99113 7.87076 9.70174 7.87076 13.6359C7.87076 17.6226 10.739 20.2807 15.1793 20.2807C17.7312 20.2807 20.2924 19.2809 21.9257 17.9695V24.9032Z" fill="#1C1B1B"/>
<path d="M11.8418 8.68138L11.8418 18.6634C11.8418 19.5031 12.6369 20.1839 13.6177 20.1839C14.5984 20.1839 15.3935 19.5031 15.3935 18.6634L15.3935 8.68138C15.3935 7.84164 14.5984 7.16089 13.6177 7.16089C12.6369 7.16089 11.8418 7.84164 11.8418 8.68138Z" fill="#F2F2F2"/>
<path d="M7.10547 8.68138L7.10547 18.6634C7.10547 19.5031 7.90055 20.1839 8.88133 20.1839C9.86211 20.1839 10.6572 19.5031 10.6572 18.6634L10.6572 8.68138C10.6572 7.84164 9.86211 7.16089 8.88133 7.16089C7.90055 7.16089 7.10547 7.84164 7.10547 8.68138Z" fill="#F2F2F2"/>
<path d="M22.0041 11.8965L14.4787 11.8965C13.935 11.8965 13.4941 12.6726 13.4941 13.63C13.4941 14.5873 13.935 15.3634 14.4787 15.3634L22.0041 15.3634V13.6026V11.8965Z" fill="#F2F2F2"/>
</svg>
