<svg width="82" height="82" viewBox="0 0 82 82" fill="none" xmlns="http://www.w3.org/2000/svg">
<circle cx="41" cy="41" r="41" fill="#1C1B1B"/>
<path d="M52.214 27.266C51.7156 27.266 51.2284 27.4138 50.814 27.6907C50.3995 27.9676 50.0766 28.3612 49.8858 28.8216C49.6951 29.2821 49.6452 29.7888 49.7424 30.2776C49.8397 30.7665 50.0797 31.2155 50.4321 31.5679C50.7845 31.9203 51.2335 32.1603 51.7224 32.2576C52.2112 32.3548 52.7179 32.3049 53.1784 32.1142C53.6388 31.9234 54.0324 31.6004 54.3093 31.186C54.5862 30.7716 54.734 30.2844 54.734 29.786C54.734 29.1177 54.4685 28.4767 53.9959 28.0041C53.5233 27.5315 52.8823 27.266 52.214 27.266ZM61.874 32.348C61.8332 30.6056 61.5068 28.8817 60.908 27.245C60.374 25.8446 59.543 24.5765 58.472 23.528C57.4321 22.4516 56.1611 21.6258 54.755 21.113C53.1226 20.4959 51.3968 20.1621 49.652 20.126C47.426 20 46.712 20 41 20C35.288 20 34.574 20 32.348 20.126C30.6032 20.1621 28.8774 20.4959 27.245 21.113C25.8415 21.631 24.5716 22.4561 23.528 23.528C22.4516 24.5679 21.6258 25.8389 21.113 27.245C20.4959 28.8774 20.1621 30.6032 20.126 32.348C20 34.574 20 35.288 20 41C20 46.712 20 47.426 20.126 49.652C20.1621 51.3968 20.4959 53.1226 21.113 54.755C21.6258 56.1611 22.4516 57.4321 23.528 58.472C24.5716 59.5439 25.8415 60.369 27.245 60.887C28.8774 61.5041 30.6032 61.8379 32.348 61.874C34.574 62 35.288 62 41 62C46.712 62 47.426 62 49.652 61.874C51.3968 61.8379 53.1226 61.5041 54.755 60.887C56.1611 60.3742 57.4321 59.5484 58.472 58.472C59.5477 57.4274 60.3795 56.1582 60.908 54.755C61.5068 53.1183 61.8332 51.3944 61.874 49.652C61.874 47.426 62 46.712 62 41C62 35.288 62 34.574 61.874 32.348ZM58.094 49.4C58.0787 50.733 57.8373 52.0538 57.38 53.306C57.0447 54.2199 56.5061 55.0457 55.805 55.721C55.1239 56.4151 54.2998 56.9525 53.39 57.296C52.1378 57.7533 50.817 57.9947 49.484 58.01C47.384 58.115 46.607 58.136 41.084 58.136C35.561 58.136 34.784 58.136 32.684 58.01C31.2999 58.0359 29.9216 57.8228 28.61 57.38C27.7401 57.019 26.9538 56.4828 26.3 55.805C25.603 55.1304 25.0712 54.3039 24.746 53.39C24.2333 52.1198 23.9489 50.7691 23.906 49.4C23.906 47.3 23.78 46.523 23.78 41C23.78 35.477 23.78 34.7 23.906 32.6C23.9154 31.2372 24.1642 29.8867 24.641 28.61C25.0107 27.7236 25.5782 26.9335 26.3 26.3C26.938 25.578 27.7265 25.0045 28.61 24.62C29.8901 24.1581 31.2392 23.9167 32.6 23.906C34.7 23.906 35.477 23.78 41 23.78C46.523 23.78 47.3 23.78 49.4 23.906C50.733 23.9213 52.0538 24.1627 53.306 24.62C54.2603 24.9742 55.1168 25.55 55.805 26.3C56.4932 26.9451 57.0309 27.7337 57.38 28.61C57.8467 29.8888 58.0883 31.2387 58.094 32.6C58.199 34.7 58.22 35.477 58.22 41C58.22 46.523 58.199 47.3 58.094 49.4ZM41 30.227C38.8702 30.2312 36.7894 30.8665 35.0206 32.0528C33.2517 33.2391 31.8742 34.923 31.062 36.8919C30.2499 38.8608 30.0395 41.0262 30.4576 43.1146C30.8756 45.2029 31.9033 47.1205 33.4108 48.6251C34.9182 50.1296 36.8378 51.1535 38.927 51.5675C41.0162 51.9815 43.1812 51.7669 45.1485 50.9509C47.1158 50.1349 48.797 48.7541 49.9799 46.983C51.1627 45.2118 51.794 43.1298 51.794 41C51.7968 39.5827 51.5193 38.1789 50.9776 36.8692C50.4359 35.5595 49.6406 34.3699 48.6374 33.3687C47.6343 32.3675 46.4431 31.5745 45.1324 31.0354C43.8217 30.4962 42.4173 30.2215 41 30.227ZM41 47.993C39.6169 47.993 38.2649 47.5829 37.1149 46.8145C35.9649 46.0461 35.0686 44.9539 34.5393 43.6761C34.01 42.3983 33.8715 40.9922 34.1414 39.6357C34.4112 38.2792 35.0772 37.0332 36.0552 36.0552C37.0332 35.0772 38.2792 34.4112 39.6357 34.1414C40.9922 33.8715 42.3983 34.01 43.6761 34.5393C44.9539 35.0686 46.0461 35.9649 46.8145 37.1149C47.5829 38.2649 47.993 39.6169 47.993 41C47.993 41.9183 47.8121 42.8277 47.4607 43.6761C47.1093 44.5245 46.5942 45.2954 45.9448 45.9448C45.2954 46.5942 44.5245 47.1093 43.6761 47.4607C42.8277 47.8121 41.9183 47.993 41 47.993Z" fill="#F2F2F2"/>
</svg>
