<svg width="92" height="92" viewBox="0 0 92 92" fill="none" xmlns="http://www.w3.org/2000/svg">
<circle cx="46" cy="46" r="41" fill="#1C1B1B"/>
<path d="M60.7 29H31.3C29.6291 29 28.0267 29.6519 26.8452 30.8123C25.6637 31.9727 25 33.5465 25 35.1875V55.8125C25 57.4535 25.6637 59.0273 26.8452 60.1877C28.0267 61.3481 29.6291 62 31.3 62H60.7C62.3709 62 63.9733 61.3481 65.1548 60.1877C66.3363 59.0273 67 57.4535 67 55.8125V35.1875C67 33.5465 66.3363 31.9727 65.1548 30.8123C63.9733 29.6519 62.3709 29 60.7 29ZM59.293 33.125L46 42.9219L32.707 33.125H59.293ZM60.7 57.875H31.3C30.743 57.875 30.2089 57.6577 29.8151 57.2709C29.4212 56.8841 29.2 56.3595 29.2 55.8125V35.7031L44.74 47.15C45.1035 47.4178 45.5456 47.5625 46 47.5625C46.4544 47.5625 46.8965 47.4178 47.26 47.15L62.8 35.7031V55.8125C62.8 56.3595 62.5788 56.8841 62.1849 57.2709C61.7911 57.6577 61.257 57.875 60.7 57.875Z" fill="#F2F2F2"/>
</svg>
