<svg width="82" height="82" viewBox="0 0 82 82" fill="none" xmlns="http://www.w3.org/2000/svg">
<circle cx="41" cy="41" r="41" fill="#1C1B1B"/>
<path d="M60 38.0055V30.6742C56.5826 30.6742 53.9747 29.7578 52.2917 27.9766C50.5643 25.9438 49.5966 23.3695 49.5552 20.697V20.1678L42.6563 20V49.7769C42.4196 51.0761 41.7919 52.271 40.8578 53.2004C39.9238 54.1298 38.7284 54.749 37.433 54.9742C36.1376 55.1994 34.8047 55.0199 33.6141 54.4599C32.4234 53.8999 31.4325 52.9864 30.775 51.8427C30.1176 50.699 29.8252 49.3801 29.9374 48.0642C30.0496 46.7483 30.5611 45.4986 31.4026 44.4839C32.2441 43.4692 33.3753 42.7384 34.6434 42.39C35.9115 42.0417 37.2554 42.0926 38.4938 42.536V35.437C37.7717 35.3181 37.0414 35.2577 36.3097 35.2563C33.6773 35.2563 31.104 36.0405 28.9152 37.5099C26.7265 38.9792 25.0205 41.0676 24.0131 43.511C23.0058 45.9543 22.7422 48.643 23.2557 51.2369C23.7693 53.8307 25.0369 56.2134 26.8983 58.0835C28.7597 59.9536 31.1313 61.2271 33.7131 61.7431C36.295 62.259 38.9711 61.9942 41.4031 60.9821C43.8352 59.97 45.9139 58.2561 47.3764 56.0571C48.8388 53.8582 49.6194 51.2728 49.6194 48.6281C49.618 48.0802 49.5837 47.5328 49.5167 46.9889V35.1789C52.6537 37.1471 56.3036 38.1313 60 38.0055Z" fill="#F2F2F2"/>
</svg>
